ply
format ascii 1.0
comment Created by Blender 2.76 (sub 0) - www.blender.org, source file: 'cornell-box.blend'
element vertex 20
property float x
property float y
property float z
property float nx
property float ny
property float nz
property float s
property float t
element face 10
property list uchar uint vertex_indices
end_header
1.300000 1.649482 0.651314 0.000000 1.000000 0.000796 0.336591 0.000167
0.820000 1.648208 2.251313 0.000000 1.000000 0.000796 0.336591 0.336013
2.400000 1.647834 2.721313 0.000000 1.000000 0.000796 0.005174 0.335243
2.900000 1.649092 1.141314 0.953400 -0.000240 0.301709 0.336931 0.669535
2.400000 1.647834 2.721313 0.953400 -0.000240 0.301709 0.336930 0.336347
2.400000 -0.002166 2.719999 0.953400 -0.000240 0.301709 0.668665 0.336347
1.300000 1.649482 0.651314 0.292826 0.000761 -0.956165 0.336596 0.668082
2.900000 1.649092 1.141314 0.292826 0.000761 -0.956165 0.000167 0.668082
2.900000 -0.000908 1.140000 0.292826 0.000761 -0.956165 0.000167 0.336347
0.820000 1.648208 2.251313 -0.957826 0.000229 -0.287348 0.672771 0.331902
1.300000 1.649482 0.651314 -0.957826 0.000229 -0.287348 0.336925 0.331902
1.300000 -0.000518 0.650000 -0.957826 0.000229 -0.287348 0.336924 0.000167
2.400000 1.647834 2.721313 -0.285121 -0.000763 0.958491 0.331902 0.668415
0.820000 1.648208 2.251313 -0.285121 -0.000763 0.958491 0.331902 0.999833
0.820000 -0.001792 2.249999 -0.285121 -0.000763 0.958491 0.000167 0.999833
2.900000 1.649092 1.141314 0.000000 1.000000 0.000796 0.000167 0.002092
2.900000 -0.000908 1.140000 0.953400 -0.000240 0.301709 0.668666 0.669534
1.300000 -0.000518 0.650000 0.292826 0.000761 -0.956165 0.336596 0.336347
0.820000 -0.001792 2.249999 -0.957826 0.000229 -0.287348 0.672771 0.000167
2.400000 -0.002166 2.719999 -0.285121 -0.000763 0.958491 0.000167 0.668415
3 0 1 2
3 3 4 5
3 6 7 8
3 9 10 11
3 12 13 14
3 15 0 2
3 16 3 5
3 17 6 8
3 18 9 11
3 19 12 14
