ply
format ascii 1.0
comment Created by Blender 2.76 (sub 0) - www.blender.org, source file: 'cornell-box.blend'
element vertex 22
property float x
property float y
property float z
property float nx
property float ny
property float nz
property float s
property float t
element face 10
property list uchar uint vertex_indices
end_header
2.650000 3.297642 2.962627 -0.000000 1.000000 0.000796 0.998939 0.498913
3.140000 3.296368 4.562626 -0.000000 1.000000 0.000796 0.999833 0.751644
4.720000 3.296766 4.062626 -0.000000 1.000000 0.000796 0.749540 0.750201
4.230000 3.298032 2.472627 0.955649 0.000234 -0.294508 0.000167 0.750202
4.720000 3.296766 4.062626 0.955649 0.000234 -0.294508 0.000167 0.498913
4.720000 -0.003233 4.059999 0.955649 0.000234 -0.294508 0.498579 0.498913
4.720000 3.296766 4.062626 0.301709 -0.000759 0.953400 0.253233 0.250464
3.140000 3.296368 4.562626 0.301709 -0.000759 0.953400 0.253233 0.000167
3.140000 -0.003631 4.559999 0.301709 -0.000759 0.953400 0.751646 0.000167
3.140000 3.296368 4.562626 -0.956166 -0.000233 0.292826 0.252900 0.498579
2.650000 3.297642 2.962627 -0.956166 -0.000233 0.292826 0.000167 0.498579
2.650000 -0.002357 2.959999 -0.956166 -0.000233 0.292826 0.000167 0.000167
2.650000 3.297642 2.962627 -0.296209 0.000761 -0.955123 0.748759 0.997325
4.230000 3.298032 2.472627 -0.296209 0.000761 -0.955123 0.498913 0.997325
4.230000 -0.001967 2.469999 -0.296209 0.000761 -0.955123 0.498913 0.498913
4.230000 3.298032 2.472627 -0.000000 1.000000 0.000796 0.749092 0.498913
4.230000 -0.001967 2.469999 0.955649 0.000235 -0.294508 0.498579 0.750202
4.230000 3.298032 2.472627 0.955649 0.000235 -0.294508 0.000167 0.750202
4.720000 -0.003233 4.059999 0.955649 0.000235 -0.294508 0.498579 0.498913
4.720000 -0.003233 4.059999 0.301709 -0.000759 0.953400 0.751646 0.250464
3.140000 -0.003631 4.559999 -0.956166 -0.000233 0.292826 0.252899 0.000167
2.650000 -0.002357 2.959999 -0.296209 0.000761 -0.955123 0.748759 0.498913
3 0 1 2
3 3 4 5
3 6 7 8
3 9 10 11
3 12 13 14
3 15 0 2
3 16 17 18
3 19 6 8
3 20 9 11
3 21 12 14
