ply
format ascii 1.0
comment Created by Blender 2.76 (sub 0) - www.blender.org, source file: 'cornell-box.blend'
element vertex 12
property float x
property float y
property float z
property float nx
property float ny
property float nz
property float s
property float t
element face 6
property list uchar uint vertex_indices
end_header
5.496000 -0.004453 5.591999 0.000000 0.000796 -1.000000 0.003896 0.335432
0.000000 -0.004453 5.591999 0.000000 0.000796 -1.000000 0.333512 0.335432
0.000000 5.483545 5.596369 0.000000 0.000796 -1.000000 0.333513 0.664568
5.560000 5.483545 5.596369 0.000000 0.000796 -1.000000 0.000058 0.664568
0.000000 0.000000 0.000000 0.000000 1.000000 0.000796 0.333512 0.000058
0.000000 -0.004453 5.591999 0.000000 1.000000 0.000796 0.333512 0.335432
5.496000 -0.004453 5.591999 0.000000 1.000000 0.000796 0.003896 0.335432
5.559999 5.487998 0.004370 0.000000 -1.000000 -0.000796 0.000058 0.999942
5.560000 5.483545 5.596369 0.000000 -1.000000 -0.000796 0.000058 0.664568
-0.000000 5.487998 0.004370 0.000000 -1.000000 -0.000796 0.333513 0.999942
0.000000 5.483545 5.596369 0.000000 -1.000000 -0.000796 0.333513 0.664568
5.528000 0.000000 0.000000 -0.000000 1.000000 0.000796 0.001977 0.000058
3 0 1 2
3 3 0 2
3 4 5 6
3 7 8 9
3 8 10 9
3 11 4 6
