ply
format ascii 1.0
comment Created by Blender 2.76 (sub 0) - www.blender.org, source file: 'cornell-box.blend'
element vertex 4
property float x
property float y
property float z
property float nx
property float ny
property float nz
property float s
property float t
element face 2
property list uchar uint vertex_indices
end_header
0.000000 0.000000 0.000000 1.000000 0.000000 0.000000 0.000099 0.000099
0.000000 5.487998 0.004370 1.000000 0.000000 0.000000 0.981307 0.000099
0.000000 5.483545 5.596368 1.000000 0.000000 0.000000 0.981307 0.999901
0.000000 -0.004453 5.591998 1.000000 0.000000 0.000000 0.000099 0.999901
3 0 1 2
3 3 0 2
