ply
format ascii 1.0
comment Created by Blender 2.64 (sub 9) - www.blender.org, source file: 'Tower.blend'
element vertex 70
property float x
property float y
property float z
property float nx
property float ny
property float nz
property float s
property float t
element face 48
property list uchar uint vertex_indices
end_header
-10.986043 15.254354 4.173078 0.000000 0.000000 1.000000 0.078430 0.553646
-9.374281 15.254354 4.173078 0.000000 0.000000 1.000000 0.079892 1.030142
-9.374281 15.476160 4.173078 0.000000 0.000000 1.000000 0.014318 1.030344
-10.986043 15.916105 3.134731 0.000000 1.000000 -0.000000 0.509204 0.553847
-9.374281 15.916105 3.134731 0.000000 1.000000 -0.000000 0.507742 1.030344
-9.374281 15.916105 2.351670 0.000000 1.000000 -0.000000 0.276241 1.029633
-9.374281 15.254354 4.173078 0.000000 -1.000000 0.000000 0.987353 1.028881
-10.986043 15.254354 4.173078 0.000000 -1.000000 0.000000 0.510857 1.030344
-10.986043 15.254354 3.654078 0.000000 -1.000000 0.000000 0.510386 0.876908
-9.374281 15.254354 3.654078 1.000000 0.000000 -0.000000 0.508022 0.167497
-9.374281 15.254354 3.135078 1.000000 0.000000 -0.000000 0.508493 0.320933
-9.374281 15.476160 3.653904 1.000000 0.000000 -0.000000 0.442448 0.167750
-10.986043 15.254354 3.654078 -1.000000 0.000000 0.000000 0.081074 0.644704
-10.986043 15.476160 3.653904 -1.000000 0.000000 0.000000 0.146648 0.644956
-10.986043 15.254354 3.135078 -1.000000 0.000000 0.000000 0.080603 0.798139
-10.986043 15.476160 4.173078 -1.000000 0.000000 -0.000000 0.147118 0.491470
-9.374281 15.254354 4.173078 1.000000 0.000000 -0.000000 0.507552 0.014062
-9.374281 15.476160 4.173078 1.000000 0.000000 -0.000000 0.441978 0.014263
-10.986043 15.696131 3.653904 0.000000 -0.000000 1.000000 0.767373 0.013469
-10.986043 15.476160 3.653904 0.000000 -0.000000 1.000000 0.832404 0.013669
-9.374281 15.476160 3.653904 0.000000 -0.000000 1.000000 0.830943 0.490165
-10.986043 15.476160 3.653904 0.000000 1.000000 0.000000 0.510666 0.013198
-10.986043 15.476160 4.173078 0.000000 1.000000 0.000000 0.664153 0.013669
-9.374281 15.476160 4.173078 0.000000 1.000000 0.000000 0.662691 0.490165
-10.986043 15.696131 3.134731 0.000000 0.000000 1.000000 0.077679 0.014573
-9.374281 15.696131 3.134731 0.000000 0.000000 1.000000 0.079141 0.491069
-9.374281 15.916105 3.134731 0.000000 0.000000 1.000000 0.014109 0.491268
-10.986043 15.696131 3.653904 -1.000000 0.000000 0.000000 0.211680 0.645156
-10.986043 15.696131 3.134731 -1.000000 0.000000 0.000000 0.211209 0.798642
-9.374281 15.254354 3.654078 0.000000 -1.000000 0.000000 0.986882 0.875446
-10.986043 15.254354 3.135078 0.000000 -1.000000 0.000000 0.509916 0.723472
-9.374281 15.476168 2.351265 0.000000 0.001864 -0.999998 0.144717 0.490869
-9.374281 15.254354 2.350852 0.000000 0.001864 -0.999998 0.079141 0.490668
-10.986043 15.254354 2.350852 0.000000 0.001864 -0.999998 0.080603 0.014172
-9.374281 15.476133 3.134731 1.000000 0.000000 0.000000 0.442927 0.321236
-9.374281 15.696131 3.134731 1.000000 0.000000 0.000000 0.377887 0.321436
-9.374281 15.254354 3.135078 0.000000 -1.000000 0.000000 0.986411 0.722010
-10.986043 15.254354 2.350852 0.000000 -1.000000 0.000000 0.509204 0.491627
-9.374281 15.696131 3.653904 0.000000 1.000000 0.000000 0.985891 0.490165
-9.374281 15.696131 3.134731 0.000000 1.000000 0.000000 0.832404 0.489694
-10.986043 15.696131 3.134731 0.000000 1.000000 0.000000 0.833866 0.013198
-9.374281 15.916105 2.351670 0.000000 -0.000040 -1.000000 0.274779 0.491268
-9.374281 15.696146 2.351678 0.000000 -0.000040 -1.000000 0.209751 0.491069
-10.986043 15.696146 2.351678 0.000000 -0.000040 -1.000000 0.211213 0.014573
-9.374281 15.696146 2.351678 1.000000 0.000000 0.000000 0.378594 0.552935
-9.374281 15.916105 3.134731 1.000000 0.000000 0.000000 0.312855 0.321635
-9.374281 15.696146 2.351678 0.000000 0.001878 -0.999998 0.209751 0.491069
-9.374281 15.476168 2.351265 0.000000 0.001878 -0.999998 0.144717 0.490869
-10.986043 15.476168 2.351265 0.000000 0.001878 -0.999998 0.146179 0.014373
-9.374281 15.476168 2.351265 1.000000 0.000000 0.000000 0.443628 0.552857
-10.986043 15.476133 3.134731 -1.000000 0.000000 0.000000 0.146169 0.798443
-10.986043 15.696146 2.351678 -1.000000 0.000000 0.000000 0.210503 1.030141
-10.986043 15.916105 3.134731 -1.000000 0.000000 0.000000 0.276241 0.798842
-10.986043 15.476168 2.351265 -1.000000 0.000000 0.000000 0.145468 1.030064
-10.986043 15.476160 4.173078 0.000000 -0.000000 1.000000 0.012856 0.553847
-10.986043 15.916105 2.351670 0.000000 1.000000 0.000000 0.277703 0.553137
-10.986043 15.254354 4.173078 -1.000000 -0.000000 -0.000000 0.081545 0.491268
-9.374281 15.696131 3.653904 0.000000 -0.000000 1.000000 0.765911 0.489965
-9.374281 15.476160 3.653904 -0.000000 1.000000 0.000000 0.509204 0.489694
-10.986043 15.916105 3.134731 0.000000 -0.000000 1.000000 0.012647 0.014772
-10.986043 15.476168 2.351265 0.000000 0.001864 -0.999998 0.146179 0.014373
-9.374281 15.696131 3.653904 1.000000 -0.000000 0.000000 0.377416 0.167949
-9.374281 15.254354 2.350852 0.000000 -1.000000 0.000000 0.985700 0.490165
-10.986043 15.696131 3.653904 0.000000 1.000000 -0.000000 0.987353 0.013669
-10.986043 15.916105 2.351670 -0.000000 -0.000040 -1.000000 0.276241 0.014772
-9.374281 15.916105 2.351670 1.000000 0.000000 0.000000 0.313566 0.553137
-10.986043 15.696146 2.351678 0.000000 0.001878 -0.999998 0.211213 0.014573
-10.986043 15.916105 2.351670 -1.000000 0.000000 0.000000 0.275530 1.030344
-9.374281 15.254354 2.350852 1.000000 0.000000 0.000000 0.509204 0.552779
-10.986043 15.254354 2.350852 -1.000000 -0.000000 -0.000000 0.079892 1.029985
3 0 1 2
3 3 4 5
3 6 7 8
3 9 10 11
3 12 13 14
3 13 12 15
3 16 9 17
3 18 19 20
3 21 22 23
3 24 25 26
3 27 28 13
3 29 8 30
3 31 32 33
3 34 35 11
3 36 30 37
3 38 39 40
3 41 42 43
3 35 44 45
3 46 47 48
3 34 49 44
3 50 28 51
3 28 52 51
3 49 34 10
3 14 50 53
3 54 0 2
3 55 3 5
3 29 6 8
3 10 34 11
3 13 50 14
3 12 56 15
3 9 11 17
3 57 18 20
3 58 21 23
3 59 24 26
3 28 50 13
3 36 29 30
3 60 31 33
3 35 61 11
3 62 36 37
3 63 38 40
3 64 41 43
3 44 65 45
3 66 46 48
3 35 34 44
3 53 50 51
3 52 67 51
3 68 49 10
3 69 14 53
