ply
format ascii 1.0
comment Created by Blender 2.64 (sub 9) - www.blender.org, source file: 'Tower.blend'
element vertex 450
property float x
property float y
property float z
property float nx
property float ny
property float nz
property float s
property float t
element face 640
property list uchar uint vertex_indices
end_header
-12.077590 23.409500 0.042808 0.951842 0.306406 0.006195 0.495016 0.376865
-12.096571 23.468775 0.043354 0.953093 0.302591 0.006165 0.495016 0.443711
-12.078007 23.408178 0.172015 0.951872 0.306406 0.006378 0.651623 0.376865
-12.115147 23.527765 0.043898 0.954802 0.297128 0.006104 0.495016 0.510137
-12.096994 23.467432 0.174572 0.953093 0.302591 0.006348 0.654061 0.443711
-12.078470 23.406845 0.300714 0.951872 0.306314 0.006592 0.808229 0.376865
-12.115573 23.526415 0.175921 0.954802 0.297128 0.006317 0.655037 0.510138
-12.097466 23.466078 0.305276 0.953093 0.302499 0.006561 0.813106 0.443711
-12.077173 23.410822 -0.086398 0.951872 0.306406 0.006012 0.338410 0.376865
-12.076806 23.412127 -0.215098 0.951872 0.306345 0.005799 0.181804 0.376865
-12.096148 23.470118 -0.087864 0.953093 0.302591 0.005951 0.335971 0.443711
-12.095775 23.471439 -0.218568 0.953093 0.302499 0.005768 0.176926 0.443710
-12.114720 23.529118 -0.088125 0.954802 0.297159 0.005921 0.334996 0.510137
-12.058339 23.350039 0.042262 0.951170 0.308512 0.006226 0.495016 0.309740
-12.057931 23.351332 -0.084128 0.951170 0.308512 0.006012 0.341824 0.309740
-12.039014 23.290590 0.041715 0.950987 0.309091 0.006226 0.495017 0.242475
-12.038616 23.291853 -0.081462 0.950987 0.309091 0.006012 0.345726 0.242475
-12.057571 23.352606 -0.210022 0.951201 0.308420 0.005829 0.188632 0.309739
-12.038359 23.293352 -0.203876 0.951018 0.309000 0.005799 0.196435 0.242475
-12.058746 23.348745 0.168651 0.951292 0.308115 0.006867 0.648209 0.309740
-12.059200 23.347441 0.294545 0.951903 0.306284 0.006592 0.801401 0.309740
-12.039412 23.289331 0.164892 0.951018 0.309000 0.007599 0.644307 0.242475
-12.040668 23.289671 0.284556 0.952086 0.305673 0.007294 0.793598 0.242475
-12.150811 23.644712 0.044981 0.957701 0.287606 0.006012 0.495016 0.641455
-12.168170 23.702858 0.045520 0.958312 0.285562 0.006012 0.495016 0.706625
-12.168578 23.701565 0.171910 0.958312 0.285592 0.006195 0.648208 0.706625
-12.185372 23.760668 0.046057 0.958434 0.285134 0.006012 0.495016 0.771656
-12.185770 23.759405 0.169240 0.958434 0.285165 0.006195 0.644307 0.771656
-12.151228 23.643393 0.174187 0.957701 0.287637 0.006226 0.651622 0.641455
-12.169031 23.700262 0.297804 0.958312 0.285623 0.006378 0.801401 0.706625
-12.186143 23.757906 0.291462 0.958434 0.285195 0.006378 0.793597 0.771656
-12.150394 23.646036 -0.084225 0.957701 0.287606 0.005829 0.338410 0.641455
-12.167762 23.704153 -0.080869 0.958312 0.285592 0.005799 0.341824 0.706625
-12.150026 23.647339 -0.212925 0.957671 0.287698 0.005646 0.181803 0.641455
-12.167402 23.705425 -0.206764 0.958312 0.285653 0.005615 0.188631 0.706625
-12.184975 23.761927 -0.077126 0.958434 0.285165 0.005799 0.345725 0.771656
-12.184559 23.762930 -0.199353 0.958434 0.285195 0.005585 0.196434 0.771656
-12.133182 23.586382 0.044440 0.956481 0.291604 0.006043 0.495016 0.576006
-12.132758 23.587725 -0.086778 0.956481 0.291635 0.005860 0.335971 0.576006
-12.132385 23.589046 -0.217482 0.956481 0.291696 0.005676 0.176926 0.576006
-12.151691 23.642059 0.302887 0.957671 0.287698 0.006409 0.808229 0.641455
-12.133605 23.585039 0.175659 0.956481 0.291604 0.006256 0.654061 0.576006
-12.134075 23.583685 0.306362 0.956481 0.291696 0.006439 0.813106 0.576006
-10.295307 26.201111 -1.622402 -0.161321 0.043458 -0.985931 0.507813 0.360236
-10.422873 26.201603 -1.601505 -0.161138 0.043458 -0.985961 0.656336 0.360236
-10.294620 26.263313 -1.619670 -0.161290 0.047487 -0.985748 0.507813 0.431782
-10.424171 26.263813 -1.598449 -0.161077 0.047487 -0.985778 0.658649 0.431783
-10.293888 26.325111 -1.616661 -0.161199 0.053163 -0.985473 0.507812 0.502880
-10.549946 26.202095 -1.580741 -0.160924 0.043550 -0.985992 0.804860 0.360236
-10.553224 26.264315 -1.577361 -0.160894 0.047548 -0.985809 0.809485 0.431783
-10.424234 26.325613 -1.595309 -0.161016 0.053163 -0.985504 0.659574 0.502880
-10.167742 26.200621 -1.643298 -0.161504 0.043458 -0.985900 0.359289 0.360236
-10.165068 26.262815 -1.640892 -0.161473 0.047487 -0.985717 0.356976 0.431782
-10.040685 26.200132 -1.664162 -0.161718 0.043550 -0.985870 0.210765 0.360236
-10.163543 26.324610 -1.638012 -0.161412 0.053163 -0.985443 0.356051 0.502880
-10.036033 26.262320 -1.662081 -0.161657 0.047548 -0.985687 0.206140 0.431782
-10.171181 26.138157 -1.645388 -0.161534 0.041261 -0.985992 0.362527 0.288391
-10.295965 26.138638 -1.624947 -0.161351 0.041261 -0.986023 0.507813 0.288391
-10.174998 26.075684 -1.647339 -0.161565 0.040651 -0.985992 0.366227 0.216396
-10.046893 26.137682 -1.665797 -0.161718 0.041353 -0.985961 0.217241 0.288391
-10.054142 26.075497 -1.667181 -0.161748 0.040742 -0.985961 0.224642 0.216396
-10.420750 26.139118 -1.604506 -0.160710 0.041658 -0.986114 0.653099 0.288391
-10.545052 26.139601 -1.584194 -0.160924 0.043580 -0.985992 0.798384 0.288391
-10.296610 26.076153 -1.627418 -0.161351 0.040651 -0.986053 0.507813 0.216396
-10.418222 26.076622 -1.607497 -0.159978 0.040712 -0.986267 0.649398 0.216396
-10.536392 26.078848 -1.588417 -0.160222 0.044221 -0.986084 0.790984 0.216397
-10.292265 26.447216 -1.609619 -0.161077 0.063112 -0.984893 0.507812 0.643432
-10.419830 26.447708 -1.588723 -0.160894 0.063112 -0.984924 0.656336 0.643432
-10.416185 26.508276 -1.585333 -0.160863 0.065249 -0.984802 0.653098 0.713184
-10.291401 26.507795 -1.605773 -0.161046 0.065249 -0.984771 0.507812 0.713184
-10.412153 26.568474 -1.581975 -0.160863 0.065676 -0.984771 0.649398 0.782788
-10.546903 26.448200 -1.567958 -0.160710 0.063021 -0.984985 0.804860 0.643432
-10.540488 26.508757 -1.565021 -0.160649 0.065188 -0.984832 0.798384 0.713185
-10.532836 26.568697 -1.562273 -0.160649 0.065645 -0.984802 0.790983 0.782788
-10.166616 26.507315 -1.626214 -0.161260 0.065249 -0.984741 0.362526 0.713184
-10.164700 26.446726 -1.630516 -0.161260 0.063112 -0.984863 0.359289 0.643432
-10.042330 26.506838 -1.646623 -0.161443 0.065188 -0.984710 0.217240 0.713184
-10.290534 26.568005 -1.601897 -0.161046 0.065706 -0.984741 0.507812 0.782787
-10.168916 26.567535 -1.621820 -0.161229 0.065676 -0.984710 0.366227 0.782787
-10.048256 26.566828 -1.641652 -0.161443 0.065645 -0.984680 0.224641 0.782787
-10.293098 26.386366 -1.613279 -0.161138 0.058931 -0.985137 0.507812 0.573380
-10.163548 26.385866 -1.634501 -0.161321 0.058931 -0.985107 0.356976 0.573380
-10.037642 26.446238 -1.651380 -0.161473 0.063021 -0.984832 0.210765 0.643431
-10.034512 26.385374 -1.655690 -0.161534 0.058870 -0.985107 0.206140 0.573380
-10.422650 26.386866 -1.592058 -0.160955 0.058931 -0.985198 0.658649 0.573380
-10.551702 26.387365 -1.570970 -0.160741 0.058870 -0.985229 0.809485 0.573380
-7.894844 24.798782 -0.094225 -0.911496 0.373821 0.171453 0.495016 0.376865
-7.872461 24.856516 -0.100533 -0.912931 0.370067 0.171880 0.495016 0.443711
-7.920292 24.794813 -0.220846 -0.911527 0.373791 0.171270 0.651623 0.376865
-7.850494 24.913998 -0.106750 -0.914975 0.364788 0.172430 0.495016 0.510137
-7.898306 24.852486 -0.229126 -0.912992 0.370067 0.171667 0.654061 0.443711
-7.945594 24.790842 -0.346979 -0.911588 0.373730 0.171087 0.808229 0.376865
-7.876497 24.909943 -0.236131 -0.915006 0.364757 0.172246 0.655037 0.510138
-7.924002 24.848454 -0.357223 -0.913053 0.369976 0.171484 0.813106 0.443711
-7.869395 24.802750 0.032396 -0.911466 0.373821 0.171667 0.338410 0.376865
-7.844001 24.806684 0.158511 -0.911466 0.373730 0.171850 0.181804 0.376865
-7.846617 24.860546 0.028059 -0.912900 0.370067 0.172063 0.335971 0.443711
-7.820827 24.864542 0.156139 -0.912900 0.370006 0.172246 0.176926 0.443710
-7.824492 24.918053 0.022631 -0.914914 0.364788 0.172643 0.334996 0.510137
-7.917502 24.740879 -0.087856 -0.910703 0.375866 0.171239 0.495016 0.309740
-7.892609 24.744761 0.036004 -0.910672 0.375835 0.171453 0.341824 0.309740
-7.940232 24.682997 -0.081474 -0.910489 0.376415 0.171178 0.495017 0.242475
-7.915972 24.686781 0.039238 -0.910428 0.376415 0.171392 0.345726 0.242475
-7.867768 24.748610 0.159371 -0.910672 0.375774 0.171636 0.188632 0.309739
-7.891711 24.690775 0.159168 -0.910428 0.376324 0.171575 0.196435 0.242475
-7.942395 24.736998 -0.211717 -0.910977 0.375469 0.170660 0.648209 0.309740
-7.967146 24.733114 -0.335100 -0.911618 0.373699 0.171087 0.801401 0.309740
-7.964493 24.679214 -0.202186 -0.910764 0.376293 0.169836 0.644307 0.242475
-7.987106 24.677038 -0.319681 -0.911985 0.373089 0.170476 0.793598 0.242475
-7.808081 25.028034 -0.118849 -0.918424 0.355480 0.173437 0.495016 0.641455
-7.787358 25.084759 -0.124792 -0.919156 0.353496 0.173650 0.495016 0.706625
-7.812252 25.080877 -0.248652 -0.919187 0.353496 0.173437 0.648208 0.706625
-7.766810 25.141161 -0.130689 -0.919309 0.353069 0.173681 0.495016 0.771656
-7.791073 25.137377 -0.251408 -0.919340 0.353069 0.173498 0.644307 0.771656
-7.833529 25.024067 -0.245470 -0.918455 0.355480 0.173223 0.651622 0.641455
-7.837002 25.076994 -0.372036 -0.919218 0.353557 0.173254 0.801401 0.706625
-7.815183 25.133375 -0.371171 -0.919370 0.353099 0.173284 0.793597 0.771656
-7.782633 25.032003 0.007772 -0.918393 0.355510 0.173620 0.338410 0.641455
-7.762465 25.088640 -0.000931 -0.919126 0.353526 0.173833 0.341824 0.706625
-7.757239 25.035936 0.133888 -0.918302 0.355602 0.173803 0.181803 0.641455
-7.737624 25.092489 0.122435 -0.919065 0.353557 0.174017 0.188631 0.706625
-7.742549 25.144941 -0.009971 -0.919279 0.353099 0.173864 0.345725 0.771656
-7.718513 25.148451 0.109823 -0.919218 0.353130 0.174078 0.196434 0.771656
-7.829081 24.971142 -0.112845 -0.916990 0.359386 0.173009 0.495016 0.576006
-7.803236 24.975172 0.015748 -0.916929 0.359386 0.173223 0.335971 0.576006
-7.777447 24.979168 0.143827 -0.916868 0.359478 0.173376 0.176926 0.576006
-7.858831 25.020096 -0.371603 -0.918455 0.355571 0.173040 0.808229 0.641455
-7.854925 24.967112 -0.241438 -0.917020 0.359386 0.172826 0.654061 0.576006
-7.880620 24.963079 -0.369535 -0.917020 0.359447 0.172613 0.813106 0.576006
-9.373873 26.210340 1.406832 0.412397 0.043825 0.909940 0.495016 0.376865
-9.256131 26.210157 1.353479 0.412214 0.043855 0.910001 0.651623 0.376865
-9.374960 26.272543 1.404218 0.412305 0.047853 0.909757 0.495016 0.443711
-9.255384 26.272356 1.350034 0.412122 0.047853 0.909848 0.654061 0.443711
-9.376164 26.334339 1.401347 0.412214 0.053560 0.909482 0.495016 0.510137
-9.138830 26.209978 1.300381 0.412030 0.043947 0.910092 0.808229 0.376865
-9.136257 26.272173 1.296109 0.411969 0.047945 0.909909 0.813106 0.443711
-9.255856 26.334150 1.346831 0.412030 0.053560 0.909574 0.655037 0.510138
-9.491615 26.210524 1.460185 0.412549 0.043855 0.909848 0.338410 0.376865
-9.494535 26.272730 1.458402 0.412488 0.047853 0.909696 0.335971 0.443711
-9.608874 26.210709 1.513375 0.412732 0.043947 0.909757 0.181804 0.376865
-9.496473 26.334526 1.455863 0.412366 0.053560 0.909421 0.334996 0.510137
-9.613621 26.272917 1.512420 0.412671 0.047945 0.909604 0.176926 0.443710
-9.488039 26.148046 1.461466 0.412610 0.041658 0.909940 0.341824 0.309740
-9.372864 26.147867 1.409276 0.412427 0.041627 0.910031 0.495016 0.309740
-9.484133 26.085558 1.462514 0.412610 0.041047 0.909940 0.345726 0.242475
-9.602741 26.148230 1.513496 0.412763 0.041749 0.909848 0.188632 0.309739
-9.595669 26.086012 1.513102 0.412793 0.041139 0.909879 0.196435 0.242475
-9.257689 26.147688 1.357086 0.411817 0.042055 0.910276 0.648209 0.309740
-9.142944 26.147512 1.305145 0.412030 0.043977 0.910092 0.801401 0.309740
-9.371885 26.085384 1.411651 0.412427 0.041047 0.910031 0.495017 0.242475
-9.259638 26.085209 1.360787 0.411145 0.041108 0.910611 0.644307 0.242475
-9.150488 26.086809 1.311628 0.411359 0.044588 0.910367 0.793598 0.242475
-9.379002 26.456442 1.394664 0.411969 0.063509 0.908963 0.495016 0.641455
-9.261259 26.456259 1.341311 0.411786 0.063509 0.909024 0.651622 0.641455
-9.265381 26.516840 1.338833 0.411725 0.065615 0.908902 0.648208 0.706625
-9.380556 26.517019 1.391023 0.411908 0.065615 0.908841 0.495016 0.706625
-9.269871 26.577053 1.336489 0.411725 0.066073 0.908872 0.644307 0.771656
-9.143959 26.456079 1.288213 0.411634 0.063387 0.909116 0.808229 0.641455
-9.150637 26.516665 1.286893 0.411573 0.065554 0.908994 0.801401 0.706625
-9.158464 26.576639 1.286080 0.411542 0.066042 0.908963 0.793597 0.771656
-9.495731 26.517199 1.443213 0.412091 0.065615 0.908750 0.341824 0.706625
-9.496743 26.456625 1.448017 0.412152 0.063509 0.908872 0.338410 0.641455
-9.610435 26.517382 1.495243 0.412275 0.065554 0.908658 0.188631 0.706625
-9.382124 26.577229 1.387355 0.411908 0.066073 0.908811 0.495016 0.771656
-9.494377 26.577404 1.438221 0.412091 0.066073 0.908719 0.345725 0.771656
-9.605729 26.577337 1.488751 0.412275 0.066012 0.908658 0.196434 0.771656
-9.377524 26.395594 1.398134 0.412061 0.059328 0.909207 0.495016 0.576006
-9.497099 26.395781 1.452318 0.412244 0.059328 0.909116 0.335971 0.576006
-9.614002 26.456812 1.501207 0.412336 0.063417 0.908811 0.181803 0.641455
-9.616184 26.395967 1.506335 0.412427 0.059236 0.909024 0.176926 0.576006
-9.257949 26.395407 1.343950 0.411908 0.059328 0.909268 0.654061 0.576006
-9.138822 26.395224 1.290025 0.411725 0.059236 0.909360 0.813106 0.576006
-10.407829 23.995411 1.513269 -0.315989 0.043825 0.947722 0.495016 0.376865
-10.285202 23.995228 1.554164 -0.316172 0.043855 0.947661 0.651623 0.376865
-10.406849 24.057613 1.510612 -0.315928 0.047853 0.947569 0.495016 0.443711
-10.282313 24.057426 1.552144 -0.316111 0.047853 0.947508 0.654061 0.443711
-10.405781 24.119410 1.507688 -0.315836 0.053560 0.947295 0.495016 0.510137
-10.163073 23.995047 1.594947 -0.316355 0.043947 0.947600 0.808229 0.376865
-10.158281 24.057243 1.593562 -0.316294 0.047945 0.947417 0.813106 0.443711
-10.280481 24.119221 1.549474 -0.316019 0.053560 0.947233 0.655037 0.510138
-10.530456 23.995594 1.472374 -0.315806 0.043855 0.947783 0.338410 0.376865
-10.531385 24.057798 1.469080 -0.315744 0.047853 0.947630 0.335971 0.443711
-10.652617 23.995779 1.431687 -0.315622 0.043947 0.947844 0.181804 0.376865
-10.531080 24.119596 1.465901 -0.315622 0.053560 0.947356 0.334996 0.510137
-10.655449 24.057987 1.427760 -0.315561 0.047945 0.947691 0.176926 0.443710
-10.528703 23.933119 1.475743 -0.315836 0.041658 0.947874 0.341824 0.309740
-10.408749 23.932938 1.515747 -0.316019 0.041627 0.947813 0.495016 0.309740
-10.526550 23.870628 1.479167 -0.315836 0.041047 0.947905 0.345726 0.242475
-10.648201 23.933298 1.435943 -0.315653 0.041749 0.947935 0.188632 0.309739
-10.642746 23.871082 1.440462 -0.315653 0.041139 0.947966 0.196435 0.242475
-10.288795 23.932758 1.555751 -0.316630 0.042055 0.947600 0.648209 0.309740
-10.169329 23.932583 1.595644 -0.316355 0.043977 0.947600 0.801401 0.309740
-10.409646 23.870455 1.518154 -0.316019 0.041047 0.947844 0.495017 0.242475
-10.292742 23.870279 1.557141 -0.317331 0.041108 0.947386 0.644307 0.242475
-10.179268 23.871880 1.595272 -0.317026 0.044618 0.947356 0.793598 0.242475
-10.403319 24.241512 1.500858 -0.315622 0.063509 0.946745 0.495016 0.641455
-10.280693 24.241329 1.541753 -0.315806 0.063509 0.946684 0.651622 0.641455
-10.282032 24.301912 1.537134 -0.315775 0.065615 0.946532 0.648208 0.706625
-10.401985 24.302092 1.497130 -0.315592 0.065645 0.946593 0.495016 0.706625
-10.283731 24.362123 1.532363 -0.315744 0.066073 0.946501 0.644307 0.771656
-10.158564 24.241148 1.582536 -0.315989 0.063387 0.946623 0.808229 0.641455
-10.162565 24.301735 1.577028 -0.315958 0.065554 0.946501 0.801401 0.706625
-10.167753 24.361710 1.571111 -0.315958 0.066042 0.946440 0.793597 0.771656
-10.521938 24.302271 1.457127 -0.315378 0.065615 0.946684 0.341824 0.706625
-10.525946 24.241695 1.459962 -0.315439 0.063509 0.946806 0.338410 0.641455
-10.641438 24.302452 1.417327 -0.315195 0.065554 0.946745 0.188631 0.706625
-10.400642 24.362299 1.493374 -0.315561 0.066073 0.946593 0.495016 0.771656
-10.517552 24.362474 1.454386 -0.315378 0.066073 0.946654 0.345725 0.771656
-10.633574 24.362406 1.415763 -0.315195 0.066042 0.946715 0.196434 0.771656
-10.404594 24.180664 1.504407 -0.315714 0.059328 0.946989 0.495016 0.576006
-10.529131 24.180849 1.462875 -0.315531 0.059328 0.947050 0.335971 0.576006
-10.648108 24.241880 1.419275 -0.315256 0.063387 0.946867 0.181803 0.641455
-10.653194 24.181038 1.421554 -0.315348 0.059236 0.947111 0.176926 0.576006
-10.280059 24.180477 1.545939 -0.315897 0.059328 0.946928 0.654061 0.576006
-10.156027 24.180294 1.587356 -0.316080 0.059236 0.946867 0.813106 0.576006
-9.872908 21.686630 1.661813 0.077609 0.043825 0.996002 0.495016 0.376865
-9.744031 21.686445 1.651778 0.077395 0.043855 0.996033 0.651623 0.376865
-9.873038 21.748831 1.658985 0.077578 0.047853 0.995819 0.495016 0.443711
-9.742155 21.748646 1.648794 0.077395 0.047853 0.995819 0.654061 0.443711
-9.873192 21.810629 1.655875 0.077578 0.053560 0.995544 0.495016 0.510137
-9.615657 21.686266 1.641833 0.077212 0.043947 0.996033 0.808229 0.376865
-9.611782 21.748463 1.638694 0.077212 0.047945 0.995849 0.813106 0.443711
-9.741507 21.810440 1.645622 0.077395 0.053560 0.995544 0.655037 0.510138
-10.001783 21.686813 1.671848 0.077792 0.043855 0.996002 0.338410 0.376865
-10.003922 21.749018 1.669176 0.077792 0.047853 0.995788 0.335971 0.443711
-10.130150 21.686998 1.681893 0.078005 0.043916 0.995972 0.181804 0.376865
-10.004877 21.810816 1.666129 0.077761 0.053560 0.995514 0.334996 0.510137
-10.134287 21.749207 1.679377 0.077975 0.047945 0.995788 0.176926 0.443710
-9.998857 21.624336 1.674270 0.077822 0.041658 0.996094 0.341824 0.309740
-9.872791 21.624157 1.664454 0.077609 0.041627 0.996094 0.495016 0.309740
-9.995543 21.561848 1.676587 0.077822 0.041047 0.996094 0.345726 0.242475
-10.124426 21.624517 1.684096 0.078005 0.041749 0.996063 0.188632 0.309739
-10.117641 21.562302 1.686137 0.078005 0.041139 0.996094 0.196435 0.242475
-9.746724 21.623978 1.654638 0.076968 0.042055 0.996124 0.648209 0.309740
-9.621148 21.623802 1.644910 0.077212 0.043977 0.996033 0.801401 0.309740
-9.872681 21.561672 1.667020 0.077609 0.041047 0.996124 0.495017 0.242475
-9.749819 21.561499 1.657454 0.076205 0.041108 0.996216 0.644307 0.242475
-9.630449 21.563099 1.648433 0.076510 0.044588 0.996063 0.793598 0.242475
-9.873582 21.932732 1.648625 0.077548 0.063509 0.994934 0.495016 0.641455
-9.744705 21.932549 1.638591 0.077364 0.063509 0.994964 0.651622 0.641455
-9.747736 21.993130 1.634857 0.077334 0.065615 0.994812 0.648208 0.706625
-9.873802 21.993309 1.644673 0.077548 0.065615 0.994812 0.495016 0.706625
-9.751159 22.053343 1.631123 0.077334 0.066073 0.994781 0.644307 0.771656
-9.616331 21.932367 1.628646 0.077151 0.063387 0.994995 0.808229 0.641455
-9.622160 21.992954 1.625129 0.077151 0.065554 0.994842 0.801401 0.706625
-9.629242 22.052927 1.621697 0.077151 0.066042 0.994812 0.793597 0.771656
-9.999869 21.993488 1.654489 0.077731 0.065615 0.994781 0.341824 0.706625
-10.002458 21.932915 1.658660 0.077731 0.063509 0.994934 0.338410 0.641455
-10.125437 21.993670 1.664315 0.077914 0.065554 0.994781 0.188631 0.706625
-9.874026 22.053518 1.640690 0.077548 0.066073 0.994781 0.495016 0.771656
-9.996895 22.053692 1.650257 0.077731 0.066073 0.994751 0.345725 0.771656
-10.118801 22.053625 1.659815 0.077944 0.066012 0.994751 0.196434 0.771656
-9.873376 21.871883 1.652391 0.077548 0.059328 0.995209 0.495016 0.576006
-10.004258 21.872068 1.662582 0.077761 0.059328 0.995178 0.335971 0.576006
-10.130824 21.933100 1.668706 0.077944 0.063387 0.994934 0.181803 0.641455
-10.134624 21.872257 1.672784 0.077944 0.059236 0.995178 0.176926 0.576006
-9.742493 21.871696 1.642200 0.077364 0.059328 0.995209 0.654061 0.576006
-9.612120 21.871513 1.632100 0.077181 0.059236 0.995239 0.813106 0.576006
-10.155583 19.227457 1.945374 -0.138401 0.043825 0.989380 0.495016 0.376865
-10.027565 19.227274 1.963290 -0.138585 0.043855 0.989349 0.651623 0.376865
-10.155104 19.289660 1.942583 -0.138371 0.047853 0.989196 0.495016 0.443711
-10.025091 19.289473 1.960779 -0.138554 0.047853 0.989166 0.654061 0.443711
-10.154585 19.351456 1.939513 -0.138310 0.053560 0.988922 0.495016 0.510137
-9.900056 19.227093 1.981186 -0.138768 0.043947 0.989319 0.808229 0.376865
-9.895597 19.289289 1.978953 -0.138737 0.047945 0.989135 0.813106 0.443711
-10.023775 19.351267 1.957820 -0.138493 0.053560 0.988891 0.655037 0.510138
-10.283602 19.227640 1.927457 -0.138188 0.043855 0.989410 0.338410 0.376865
-10.285115 19.289846 1.924388 -0.138157 0.047853 0.989227 0.335971 0.443711
-10.411125 19.227825 1.909661 -0.138005 0.043947 0.989441 0.181804 0.376865
-10.285394 19.351643 1.921206 -0.138127 0.053560 0.988952 0.334996 0.510137
-10.414624 19.290033 1.906314 -0.137974 0.047945 0.989257 0.176926 0.443710
-10.281265 19.165163 1.930452 -0.138218 0.041658 0.989502 0.341824 0.309740
-10.156038 19.164984 1.947978 -0.138401 0.041627 0.989471 0.495016 0.309740
-10.278526 19.102674 1.933427 -0.138188 0.041047 0.989532 0.345726 0.242475
-10.406009 19.165346 1.913044 -0.138005 0.041749 0.989532 0.188632 0.309739
-10.399823 19.103128 1.916495 -0.138005 0.041139 0.989563 0.196435 0.242475
-10.030810 19.164804 1.965504 -0.139042 0.042055 0.989380 0.648209 0.309740
-9.906080 19.164629 1.983010 -0.138768 0.043977 0.989319 0.801401 0.309740
-10.156482 19.102499 1.950508 -0.138401 0.041047 0.989502 0.495017 0.242475
-10.034437 19.102325 1.967588 -0.139775 0.041108 0.989319 0.644307 0.242475
-9.915922 19.103926 1.984450 -0.139470 0.044588 0.989196 0.793598 0.242475
-10.153406 19.473558 1.932349 -0.138218 0.063509 0.988342 0.495016 0.641455
-10.025388 19.473375 1.950266 -0.138401 0.063509 0.988311 0.651622 0.641455
-10.027544 19.533957 1.945967 -0.138401 0.065615 0.988189 0.648208 0.706625
-10.152772 19.534136 1.928442 -0.138188 0.065645 0.988220 0.495016 0.706625
-10.030084 19.594172 1.941585 -0.138401 0.066073 0.988159 0.644307 0.771656
-9.897879 19.473196 1.968162 -0.138615 0.063417 0.988311 0.808229 0.641455
-9.902815 19.533781 1.963473 -0.138585 0.065554 0.988159 0.801401 0.706625
-9.908993 19.593756 1.958599 -0.138585 0.066042 0.988128 0.793597 0.771656
-10.278000 19.534315 1.910916 -0.138005 0.065615 0.988250 0.341824 0.706625
-10.281425 19.473742 1.914433 -0.138035 0.063509 0.988372 0.338410 0.641455
-10.402742 19.534498 1.893507 -0.137822 0.065554 0.988281 0.188631 0.706625
-10.152134 19.594345 1.924504 -0.138188 0.066073 0.988189 0.495016 0.771656
-10.274184 19.594521 1.907423 -0.138005 0.066073 0.988220 0.345725 0.771656
-10.395294 19.594452 1.890540 -0.137791 0.066042 0.988250 0.196434 0.771656
-10.154015 19.412710 1.936071 -0.138249 0.059328 0.988586 0.495016 0.576006
-10.284026 19.412897 1.917876 -0.138066 0.059328 0.988617 0.335971 0.576006
-10.408948 19.473928 1.896636 -0.137822 0.063417 0.988403 0.181803 0.641455
-10.413535 19.413084 1.899802 -0.137883 0.059236 0.988647 0.176926 0.576006
-10.024003 19.412523 1.954267 -0.138462 0.059328 0.988586 0.654061 0.576006
-9.894508 19.412340 1.972441 -0.138646 0.059236 0.988556 0.813106 0.576006
-11.196136 20.214090 -1.367476 -0.619861 0.062838 -0.782159 0.495016 0.376865
-11.297520 20.211756 -1.287316 -0.619709 0.062868 -0.782281 0.651623 0.376865
-11.194528 20.276217 -1.363631 -0.619770 0.066866 -0.781915 0.495016 0.443711
-11.297490 20.273846 -1.282222 -0.619617 0.066866 -0.782037 0.654061 0.443711
-11.192743 20.337933 -1.359574 -0.619587 0.072573 -0.781518 0.495016 0.510137
-11.398537 20.209433 -1.207510 -0.619556 0.062960 -0.782403 0.808229 0.376865
-11.400080 20.271486 -1.201173 -0.619465 0.066958 -0.782128 0.813106 0.443711
-11.296337 20.335546 -1.277667 -0.619434 0.072573 -0.781640 0.655037 0.510138
-11.094753 20.216427 -1.447637 -0.620014 0.062868 -0.782037 0.338410 0.376865
-11.091566 20.278589 -1.445039 -0.619922 0.066866 -0.781793 0.335971 0.443711
-10.993799 20.218758 -1.527522 -0.620167 0.062929 -0.781915 0.181804 0.376865
-11.089149 20.340321 -1.441482 -0.619739 0.072542 -0.781396 0.334996 0.510137
-10.989039 20.280956 -1.526169 -0.620075 0.066958 -0.781671 0.176926 0.443710
-11.098455 20.153975 -1.449595 -0.620075 0.060671 -0.782159 0.341824 0.309740
-11.197628 20.151690 -1.371182 -0.619922 0.060640 -0.782281 0.495016 0.309740
-11.102421 20.091503 -1.451249 -0.620106 0.060060 -0.782189 0.345726 0.242475
-10.999701 20.156256 -1.527739 -0.620228 0.060762 -0.782037 0.188632 0.309739
-11.006392 20.093996 -1.527223 -0.620258 0.060152 -0.782067 0.196435 0.242475
-11.296802 20.149405 -1.292769 -0.619404 0.061068 -0.782678 0.648209 0.309740
-11.395617 20.147133 -1.214702 -0.619556 0.062990 -0.782403 0.801401 0.309740
-11.199073 20.089277 -1.374829 -0.619922 0.060060 -0.782311 0.495017 0.242475
-11.295725 20.087049 -1.298409 -0.618854 0.060152 -0.783166 0.644307 0.242475
-11.389784 20.086660 -1.224345 -0.618976 0.063631 -0.782800 0.793598 0.242475
-11.188529 20.459856 -1.350690 -0.619251 0.082492 -0.780816 0.495016 0.641455
-11.289913 20.457520 -1.270530 -0.619098 0.082492 -0.780938 0.651622 0.641455
-11.285390 20.518053 -1.267590 -0.619007 0.084597 -0.780786 0.648208 0.706625
-11.186216 20.520338 -1.346002 -0.619190 0.084597 -0.780663 0.495016 0.706625
-11.280542 20.578222 -1.264877 -0.619007 0.085055 -0.780725 0.644307 0.771656
-11.390930 20.455196 -1.190723 -0.618946 0.082400 -0.781060 0.808229 0.641455
-11.384205 20.515779 -1.189523 -0.618885 0.084567 -0.780908 0.801401 0.706625
-11.376488 20.575773 -1.189107 -0.618854 0.085025 -0.780877 0.793597 0.771656
-11.087044 20.522623 -1.424415 -0.619343 0.084597 -0.780511 0.341824 0.706625
-11.087146 20.462193 -1.430851 -0.619404 0.082492 -0.780694 0.338410 0.641455
-10.988290 20.524904 -1.502559 -0.619495 0.084536 -0.780419 0.188631 0.706625
-11.183886 20.580450 -1.341301 -0.619160 0.085055 -0.780602 0.495016 0.771656
-11.087228 20.582678 -1.417724 -0.619312 0.085055 -0.780480 0.345725 0.771656
-10.991364 20.584646 -1.493611 -0.619465 0.084994 -0.780358 0.196434 0.771656
-11.190724 20.399099 -1.355237 -0.619404 0.078310 -0.781121 0.495016 0.576006
-11.087763 20.401472 -1.436646 -0.619556 0.078310 -0.780999 0.335971 0.576006
-10.986191 20.464523 -1.510736 -0.619556 0.082369 -0.780572 0.181803 0.641455
-10.985235 20.403839 -1.517775 -0.619709 0.078219 -0.780877 0.176926 0.576006
-11.293686 20.396727 -1.273829 -0.619251 0.078310 -0.781243 0.654061 0.576006
-11.396276 20.394369 -1.192780 -0.619098 0.078249 -0.781365 0.813106 0.576006
-9.522046 22.586443 -2.085933 -0.314371 0.435926 0.843257 0.495016 0.376865
-9.517449 22.642311 -2.112982 -0.314676 0.432295 0.844997 0.495016 0.443711
-9.644331 22.576836 -2.126558 -0.314585 0.435896 0.843196 0.651623 0.376865
-9.512976 22.697956 -2.139606 -0.315104 0.427168 0.847468 0.495016 0.510137
-9.641638 22.632555 -2.154239 -0.314859 0.432264 0.844966 0.654061 0.443711
-9.766120 22.567245 -2.167066 -0.314768 0.435804 0.843196 0.808229 0.376865
-9.637926 22.688141 -2.181117 -0.315287 0.427137 0.847407 0.655037 0.510138
-9.765324 22.622814 -2.195378 -0.315043 0.432203 0.844935 0.813106 0.443711
-9.399761 22.596048 -2.045308 -0.314188 0.435926 0.843318 0.338410 0.376865
-9.277941 22.605597 -2.004885 -0.314005 0.435865 0.843440 0.181804 0.376865
-9.393261 22.652067 -2.071724 -0.314493 0.432325 0.845088 0.335971 0.443711
-9.269543 22.661762 -2.030672 -0.314310 0.432264 0.845180 0.176926 0.443710
-9.388025 22.707771 -2.098096 -0.314890 0.427168 0.847530 0.334996 0.510137
-9.526725 22.530428 -2.058602 -0.314219 0.437880 0.842311 0.495016 0.309740
-9.407106 22.539824 -2.018862 -0.314035 0.437880 0.842372 0.341824 0.309740
-9.531427 22.474436 -2.031203 -0.314188 0.438398 0.842036 0.495017 0.242475
-9.414850 22.483595 -1.992474 -0.313974 0.438429 0.842097 0.345726 0.242475
-9.287941 22.549164 -1.979321 -0.313852 0.437819 0.842463 0.188632 0.309739
-9.298953 22.492922 -1.954152 -0.313791 0.438368 0.842219 0.196435 0.242475
-9.646343 22.521030 -2.098341 -0.314859 0.437483 0.842280 0.648209 0.309740
-9.765478 22.511648 -2.137966 -0.314768 0.435774 0.843196 0.801401 0.309740
-9.648006 22.465279 -2.069933 -0.315500 0.438246 0.841639 0.644307 0.242475
-9.761007 22.457804 -2.108614 -0.315470 0.435133 0.843257 0.793598 0.242475
-9.504482 22.808434 -2.191302 -0.315775 0.418165 0.851680 0.495016 0.641455
-9.500380 22.863413 -2.216655 -0.315928 0.416242 0.852565 0.495016 0.706625
-9.619998 22.854017 -2.256395 -0.316111 0.416242 0.852504 0.648208 0.706625
-9.496318 22.918083 -2.241810 -0.315958 0.415815 0.852779 0.495016 0.771656
-9.612902 22.908924 -2.280541 -0.316141 0.415845 0.852687 0.644307 0.771656
-9.626766 22.798826 -2.231927 -0.315958 0.418165 0.851619 0.651622 0.641455
-9.739132 22.844635 -2.296020 -0.316294 0.416272 0.852443 0.801401 0.706625
-9.728580 22.899593 -2.318911 -0.316324 0.415845 0.852626 0.793597 0.771656
-9.382197 22.818041 -2.150677 -0.315592 0.418195 0.851741 0.338410 0.641455
-9.380760 22.872810 -2.176916 -0.315744 0.416272 0.852626 0.341824 0.706625
-9.260376 22.827587 -2.110255 -0.315409 0.418287 0.851772 0.181803 0.641455
-9.261595 22.882151 -2.137375 -0.315561 0.416333 0.852687 0.188631 0.706625
-9.379734 22.927242 -2.203078 -0.315775 0.415845 0.852840 0.345725 0.771656
-9.264057 22.936087 -2.164590 -0.315592 0.415906 0.852870 0.196434 0.771656
-9.508667 22.753305 -2.165666 -0.315500 0.421949 0.849940 0.495016 0.576006
-9.384479 22.763062 -2.124409 -0.315317 0.421949 0.850002 0.335971 0.576006
-9.260761 22.772758 -2.083357 -0.315134 0.422040 0.850002 0.176926 0.576006
-9.748556 22.789236 -2.272435 -0.316141 0.418226 0.851527 0.808229 0.641455
-9.632856 22.743549 -2.206924 -0.315683 0.421949 0.849849 0.654061 0.576006
-9.756542 22.733810 -2.248063 -0.315867 0.422010 0.849757 0.813106 0.576006
-8.291859 21.415934 0.110389 0.992615 0.120304 0.013977 0.495016 0.376865
-8.290146 21.416811 -0.018808 0.992615 0.120304 0.014161 0.651623 0.376865
-8.299454 21.477734 0.110709 0.992126 0.124302 0.013977 0.495016 0.443711
-8.297714 21.478624 -0.020501 0.992126 0.124271 0.014191 0.654061 0.443711
-8.307299 21.539106 0.111022 0.991394 0.129948 0.014008 0.495016 0.510137
-8.288389 21.417692 -0.147499 0.992615 0.120396 0.014374 0.808229 0.376865
-8.295930 21.479521 -0.151195 0.992126 0.124363 0.014374 0.813106 0.443711
-8.305548 21.540005 -0.020992 0.991394 0.129948 0.014222 0.655037 0.510138
-8.293571 21.415054 0.239587 0.992615 0.120304 0.013764 0.338410 0.376865
-8.301193 21.476841 0.241918 0.992126 0.124302 0.013794 0.335971 0.443711
-8.295228 21.414186 0.368279 0.992615 0.120396 0.013581 0.181804 0.376865
-8.309050 21.538210 0.243036 0.991394 0.129948 0.013825 0.334996 0.510137
-8.302876 21.475960 0.372614 0.992126 0.124363 0.013581 0.176926 0.443710
-8.286106 21.352987 0.236447 0.992889 0.118107 0.013733 0.341824 0.309740
-8.284430 21.353848 0.110066 0.992889 0.118107 0.013947 0.495016 0.309740
-8.278709 21.290907 0.232910 0.992950 0.117496 0.013733 0.345726 0.242475
-8.287726 21.352139 0.362333 0.992889 0.118198 0.013550 0.188632 0.309739
-8.280311 21.290358 0.355320 0.992950 0.117588 0.013550 0.196435 0.242475
-8.282755 21.354708 -0.016316 0.992828 0.118503 0.014588 0.648209 0.309740
-8.281036 21.355570 -0.142200 0.992615 0.120426 0.014374 0.801401 0.309740
-8.277076 21.291746 0.109741 0.992950 0.117496 0.013947 0.495017 0.242475
-8.275442 21.292583 -0.013428 0.992920 0.117588 0.015351 0.644307 0.242475
-8.273720 21.295183 -0.133057 0.992523 0.121036 0.015076 0.793598 0.242475
-8.323905 21.660292 0.111626 0.990051 0.139805 0.014069 0.495016 0.641455
-8.322192 21.661171 -0.017572 0.990051 0.139805 0.014252 0.651622 0.641455
-8.330824 21.721247 -0.014461 0.989746 0.141911 0.014283 0.648208 0.706625
-8.332500 21.720388 0.111920 0.989746 0.141942 0.014069 0.495016 0.706625
-8.339463 21.780951 -0.010963 0.989685 0.142369 0.014283 0.644307 0.771656
-8.320436 21.662054 -0.146262 0.990081 0.139714 0.014466 0.808229 0.641455
-8.329106 21.722109 -0.140346 0.989776 0.141850 0.014466 0.801401 0.706625
-8.337758 21.781546 -0.133179 0.989685 0.142308 0.014466 0.793597 0.771656
-8.334176 21.719528 0.238302 0.989776 0.141911 0.013886 0.341824 0.706625
-8.325619 21.659414 0.240823 0.990051 0.139805 0.013855 0.338410 0.641455
-8.335796 21.718679 0.364188 0.989776 0.141881 0.013672 0.188631 0.706625
-8.341097 21.780111 0.112212 0.989685 0.142369 0.014069 0.495016 0.771656
-8.342730 21.779274 0.235387 0.989715 0.142369 0.013886 0.345725 0.771656
-8.344266 21.778208 0.357603 0.989715 0.142338 0.013672 0.196434 0.771656
-8.315477 21.599913 0.111327 0.990631 0.135685 0.014039 0.495016 0.576006
-8.317217 21.599020 0.242536 0.990631 0.135685 0.013855 0.335971 0.576006
-8.327274 21.658546 0.369515 0.990081 0.139714 0.013672 0.181803 0.641455
-8.318899 21.598139 0.373232 0.990661 0.135594 0.013642 0.176926 0.576006
-8.313737 21.600805 -0.019882 0.990631 0.135685 0.014252 0.654061 0.576006
-8.311953 21.601702 -0.150577 0.990631 0.135594 0.014435 0.813106 0.576006
-12.116046 23.525053 0.307426 0.954802 0.297128 0.006500 0.815057 0.510138
-12.114345 23.530447 -0.219630 0.954802 0.297159 0.005707 0.174975 0.510137
-10.554078 26.326117 -1.574092 -0.160833 0.053163 -0.985534 0.811335 0.502881
-10.033716 26.324110 -1.659331 -0.161596 0.053163 -0.985412 0.204290 0.502880
-7.902351 24.905886 -0.365014 -0.915036 0.364757 0.172063 0.815057 0.510138
-7.798544 24.922071 0.151496 -0.914884 0.364788 0.172826 0.174975 0.510137
-9.135998 26.333967 1.292575 0.411847 0.053560 0.909665 0.815057 0.510138
-9.616288 26.334715 1.510212 0.412549 0.053560 0.909330 0.174975 0.510137
-10.155689 24.119038 1.591146 -0.316202 0.053560 0.947172 0.815057 0.510138
-10.655906 24.119787 1.424327 -0.315439 0.053560 0.947417 0.174975 0.510137
-9.610333 21.810257 1.635460 0.077181 0.053560 0.995575 0.815057 0.510138
-10.136043 21.811005 1.676393 0.077975 0.053560 0.995514 0.174975 0.510137
-9.893486 19.351084 1.976107 -0.138707 0.053560 0.988861 0.815057 0.510138
-10.415697 19.351831 1.903022 -0.137913 0.053560 0.988983 0.174975 0.510137
-11.399556 20.333172 -1.196120 -0.619282 0.072573 -0.781762 0.815057 0.510138
-10.985994 20.342701 -1.523109 -0.619892 0.072542 -0.781274 0.174975 0.510137
-9.762371 22.678341 -2.222508 -0.315470 0.427137 0.847346 0.815057 0.510138
-9.263549 22.717527 -2.056792 -0.314707 0.427198 0.847591 0.174975 0.510137
-8.303753 21.540905 -0.152488 0.991394 0.129948 0.014405 0.815057 0.510138
-8.310741 21.537323 0.374533 0.991424 0.129948 0.013611 0.174975 0.510137
3 0 1 2
3 1 3 4
3 2 4 5
3 4 6 7
3 0 8 1
3 8 9 10
3 1 10 3
3 10 11 12
3 0 13 14
3 13 15 16
3 8 14 17
3 14 16 18
3 0 2 19
3 2 5 20
3 13 19 21
3 19 20 22
3 23 24 25
3 24 26 27
3 28 25 29
3 25 27 30
3 23 31 32
3 31 33 34
3 32 35 24
3 32 34 36
3 23 37 31
3 37 3 38
3 31 38 33
3 38 12 39
3 23 28 37
3 28 40 41
3 37 41 3
3 41 42 6
3 43 44 45
3 45 46 47
3 44 48 46
3 46 49 50
3 43 45 51
3 51 52 53
3 45 47 52
3 52 54 55
3 43 51 56
3 57 56 58
3 51 53 59
3 56 59 60
3 43 57 61
3 44 61 62
3 57 63 64
3 61 64 65
3 66 67 68
3 69 68 70
3 67 71 72
3 68 72 73
3 66 69 74
3 75 74 76
3 69 77 78
3 74 78 79
3 66 75 80
3 80 81 47
3 75 82 81
3 81 83 54
3 66 80 67
3 67 84 71
3 80 47 84
3 84 50 85
3 86 87 88
3 87 89 90
3 88 90 91
3 90 92 93
3 86 94 87
3 94 95 96
3 87 96 89
3 96 97 98
3 86 99 100
3 99 101 102
3 94 100 103
3 100 102 104
3 86 88 105
3 88 91 106
3 99 105 107
3 105 106 108
3 109 110 111
3 110 112 113
3 114 111 115
3 111 113 116
3 109 117 118
3 117 119 120
3 110 118 121
3 118 120 122
3 109 123 117
3 123 89 124
3 117 124 119
3 124 98 125
3 109 114 123
3 114 126 127
3 123 127 89
3 127 128 92
3 129 130 131
3 131 132 133
3 130 134 132
3 132 135 136
3 129 131 137
3 137 138 139
3 131 133 138
3 138 140 141
3 129 137 142
3 143 142 144
3 137 139 145
3 142 145 146
3 129 143 147
3 130 147 148
3 143 149 150
3 147 150 151
3 152 153 154
3 155 154 156
3 153 157 158
3 154 158 159
3 152 155 160
3 161 160 162
3 155 163 164
3 160 164 165
3 152 161 166
3 166 167 133
3 161 168 167
3 167 169 140
3 152 166 153
3 153 170 157
3 166 133 170
3 170 136 171
3 172 173 174
3 174 175 176
3 173 177 175
3 175 178 179
3 172 174 180
3 180 181 182
3 174 176 181
3 181 183 184
3 172 180 185
3 186 185 187
3 180 182 188
3 185 188 189
3 172 186 190
3 173 190 191
3 186 192 193
3 190 193 194
3 195 196 197
3 198 197 199
3 196 200 201
3 197 201 202
3 195 198 203
3 204 203 205
3 198 206 207
3 203 207 208
3 195 204 209
3 209 210 176
3 204 211 210
3 210 212 183
3 195 209 196
3 196 213 200
3 209 176 213
3 213 179 214
3 215 216 217
3 217 218 219
3 216 220 218
3 218 221 222
3 215 217 223
3 223 224 225
3 217 219 224
3 224 226 227
3 215 223 228
3 229 228 230
3 223 225 231
3 228 231 232
3 215 229 233
3 216 233 234
3 229 235 236
3 233 236 237
3 238 239 240
3 241 240 242
3 239 243 244
3 240 244 245
3 238 241 246
3 247 246 248
3 241 249 250
3 246 250 251
3 238 247 252
3 252 253 219
3 247 254 253
3 253 255 226
3 238 252 239
3 239 256 243
3 252 219 256
3 256 222 257
3 258 259 260
3 260 261 262
3 259 263 261
3 261 264 265
3 258 260 266
3 266 267 268
3 260 262 267
3 267 269 270
3 258 266 271
3 272 271 273
3 266 268 274
3 271 274 275
3 258 272 276
3 259 276 277
3 272 278 279
3 276 279 280
3 281 282 283
3 284 283 285
3 282 286 287
3 283 287 288
3 281 284 289
3 290 289 291
3 284 292 293
3 289 293 294
3 281 290 295
3 295 296 262
3 290 297 296
3 296 298 269
3 281 295 282
3 282 299 286
3 295 262 299
3 299 265 300
3 301 302 303
3 303 304 305
3 302 306 304
3 304 307 308
3 301 303 309
3 309 310 311
3 303 305 310
3 310 312 313
3 301 309 314
3 315 314 316
3 309 311 317
3 314 317 318
3 301 315 319
3 302 319 320
3 315 321 322
3 319 322 323
3 324 325 326
3 327 326 328
3 325 329 330
3 326 330 331
3 324 327 332
3 333 332 334
3 327 335 336
3 332 336 337
3 324 333 338
3 338 339 305
3 333 340 339
3 339 341 312
3 324 338 325
3 325 342 329
3 338 305 342
3 342 308 343
3 344 345 346
3 345 347 348
3 346 348 349
3 348 350 351
3 344 352 345
3 352 353 354
3 345 354 347
3 354 355 356
3 344 357 358
3 357 359 360
3 352 358 361
3 358 360 362
3 344 346 363
3 346 349 364
3 357 363 365
3 363 364 366
3 367 368 369
3 368 370 371
3 372 369 373
3 369 371 374
3 367 375 376
3 375 377 378
3 368 376 379
3 376 378 380
3 367 381 375
3 381 347 382
3 375 382 377
3 382 356 383
3 367 372 381
3 372 384 385
3 381 385 347
3 385 386 350
3 387 388 389
3 389 390 391
3 388 392 390
3 390 393 394
3 387 389 395
3 395 396 397
3 389 391 396
3 396 398 399
3 387 395 400
3 401 400 402
3 395 397 403
3 400 403 404
3 387 401 405
3 388 405 406
3 401 407 408
3 405 408 409
3 410 411 412
3 413 412 414
3 411 415 416
3 412 416 417
3 410 413 418
3 419 418 420
3 413 421 422
3 418 422 423
3 410 419 424
3 424 425 391
3 419 426 425
3 425 427 398
3 410 424 411
3 411 428 415
3 424 391 428
3 428 394 429
3 1 4 2
3 3 6 4
3 4 7 5
3 6 430 7
3 8 10 1
3 9 11 10
3 10 12 3
3 11 431 12
3 8 0 14
3 14 13 16
3 9 8 17
3 17 14 18
3 13 0 19
3 19 2 20
3 15 13 21
3 21 19 22
3 28 23 25
3 25 24 27
3 40 28 29
3 29 25 30
3 24 23 32
3 32 31 34
3 24 35 26
3 35 32 36
3 37 38 31
3 3 12 38
3 38 39 33
3 12 431 39
3 28 41 37
3 40 42 41
3 41 6 3
3 42 430 6
3 44 46 45
3 46 50 47
3 48 49 46
3 49 432 50
3 45 52 51
3 52 55 53
3 47 54 52
3 54 433 55
3 57 43 56
3 63 57 58
3 56 51 59
3 58 56 60
3 44 43 61
3 48 44 62
3 61 57 64
3 62 61 65
3 69 66 68
3 77 69 70
3 68 67 72
3 70 68 73
3 75 66 74
3 82 75 76
3 74 69 78
3 76 74 79
3 75 81 80
3 81 54 47
3 82 83 81
3 83 433 54
3 80 84 67
3 84 85 71
3 47 50 84
3 50 432 85
3 87 90 88
3 89 92 90
3 90 93 91
3 92 434 93
3 94 96 87
3 95 97 96
3 96 98 89
3 97 435 98
3 94 86 100
3 100 99 102
3 95 94 103
3 103 100 104
3 99 86 105
3 105 88 106
3 101 99 107
3 107 105 108
3 114 109 111
3 111 110 113
3 126 114 115
3 115 111 116
3 110 109 118
3 118 117 120
3 112 110 121
3 121 118 122
3 123 124 117
3 89 98 124
3 124 125 119
3 98 435 125
3 114 127 123
3 126 128 127
3 127 92 89
3 128 434 92
3 130 132 131
3 132 136 133
3 134 135 132
3 135 436 136
3 131 138 137
3 138 141 139
3 133 140 138
3 140 437 141
3 143 129 142
3 149 143 144
3 142 137 145
3 144 142 146
3 130 129 147
3 134 130 148
3 147 143 150
3 148 147 151
3 155 152 154
3 163 155 156
3 154 153 158
3 156 154 159
3 161 152 160
3 168 161 162
3 160 155 164
3 162 160 165
3 161 167 166
3 167 140 133
3 168 169 167
3 169 437 140
3 166 170 153
3 170 171 157
3 133 136 170
3 136 436 171
3 173 175 174
3 175 179 176
3 177 178 175
3 178 438 179
3 174 181 180
3 181 184 182
3 176 183 181
3 183 439 184
3 186 172 185
3 192 186 187
3 185 180 188
3 187 185 189
3 173 172 190
3 177 173 191
3 190 186 193
3 191 190 194
3 198 195 197
3 206 198 199
3 197 196 201
3 199 197 202
3 204 195 203
3 211 204 205
3 203 198 207
3 205 203 208
3 204 210 209
3 210 183 176
3 211 212 210
3 212 439 183
3 209 213 196
3 213 214 200
3 176 179 213
3 179 438 214
3 216 218 217
3 218 222 219
3 220 221 218
3 221 440 222
3 217 224 223
3 224 227 225
3 219 226 224
3 226 441 227
3 229 215 228
3 235 229 230
3 228 223 231
3 230 228 232
3 216 215 233
3 220 216 234
3 233 229 236
3 234 233 237
3 241 238 240
3 249 241 242
3 240 239 244
3 242 240 245
3 247 238 246
3 254 247 248
3 246 241 250
3 248 246 251
3 247 253 252
3 253 226 219
3 254 255 253
3 255 441 226
3 252 256 239
3 256 257 243
3 219 222 256
3 222 440 257
3 259 261 260
3 261 265 262
3 263 264 261
3 264 442 265
3 260 267 266
3 267 270 268
3 262 269 267
3 269 443 270
3 272 258 271
3 278 272 273
3 271 266 274
3 273 271 275
3 259 258 276
3 263 259 277
3 276 272 279
3 277 276 280
3 284 281 283
3 292 284 285
3 283 282 287
3 285 283 288
3 290 281 289
3 297 290 291
3 289 284 293
3 291 289 294
3 290 296 295
3 296 269 262
3 297 298 296
3 298 443 269
3 295 299 282
3 299 300 286
3 262 265 299
3 265 442 300
3 302 304 303
3 304 308 305
3 306 307 304
3 307 444 308
3 303 310 309
3 310 313 311
3 305 312 310
3 312 445 313
3 315 301 314
3 321 315 316
3 314 309 317
3 316 314 318
3 302 301 319
3 306 302 320
3 319 315 322
3 320 319 323
3 327 324 326
3 335 327 328
3 326 325 330
3 328 326 331
3 333 324 332
3 340 333 334
3 332 327 336
3 334 332 337
3 333 339 338
3 339 312 305
3 340 341 339
3 341 445 312
3 338 342 325
3 342 343 329
3 305 308 342
3 308 444 343
3 345 348 346
3 347 350 348
3 348 351 349
3 350 446 351
3 352 354 345
3 353 355 354
3 354 356 347
3 355 447 356
3 352 344 358
3 358 357 360
3 353 352 361
3 361 358 362
3 357 344 363
3 363 346 364
3 359 357 365
3 365 363 366
3 372 367 369
3 369 368 371
3 384 372 373
3 373 369 374
3 368 367 376
3 376 375 378
3 370 368 379
3 379 376 380
3 381 382 375
3 347 356 382
3 382 383 377
3 356 447 383
3 372 385 381
3 384 386 385
3 385 350 347
3 386 446 350
3 388 390 389
3 390 394 391
3 392 393 390
3 393 448 394
3 389 396 395
3 396 399 397
3 391 398 396
3 398 449 399
3 401 387 400
3 407 401 402
3 400 395 403
3 402 400 404
3 388 387 405
3 392 388 406
3 405 401 408
3 406 405 409
3 413 410 412
3 421 413 414
3 412 411 416
3 414 412 417
3 419 410 418
3 426 419 420
3 418 413 422
3 420 418 423
3 419 425 424
3 425 398 391
3 426 427 425
3 427 449 398
3 424 428 411
3 428 429 415
3 391 394 428
3 394 448 429
