ply
format ascii 1.0
comment Created by Blender 2.64 (sub 9) - www.blender.org, source file: ''
element vertex 4
property float x
property float y
property float z
property float nx
property float ny
property float nz
property float s
property float t
element face 2
property list uchar uint vertex_indices
end_header
-6.005697 -1.003176 6.000000 0.000000 1.000000 -0.000000 0.000100 0.000100
5.994303 -1.003176 6.000000 0.000000 1.000000 -0.000000 0.999900 0.000100
5.994303 -1.003176 -6.000000 0.000000 1.000000 -0.000000 0.999900 0.999900
-6.005697 -1.003176 -6.000000 0.000000 1.000000 0.000000 0.000100 0.999900
3 0 1 2
3 3 0 2
