ply
format ascii 1.0
comment Created by Blender 2.64 (sub 9) - www.blender.org, source file: ''
element vertex 410
property float x
property float y
property float z
property float nx
property float ny
property float nz
property float s
property float t
element face 470
property list uchar uint vertex_indices
end_header
-1.309929 -0.575936 2.150511 -0.979797 -0.189978 0.062410 0.043307 0.091760
-1.237201 -0.723222 2.115705 -0.773919 -0.631550 -0.046602 0.058724 0.031712
-1.226609 -0.718292 2.215349 -0.739738 -0.620472 0.260353 0.093994 0.044619
-1.142170 -0.241294 2.164648 -0.480544 0.873104 0.082125 0.417724 0.000015
-1.253386 -0.337912 2.086829 -0.808557 0.574816 -0.125614 0.385752 0.052789
-1.211731 -0.315104 2.248532 -0.674001 0.634907 0.377575 0.375503 0.011495
-1.211731 -0.315104 2.248532 -0.674001 0.634907 0.377575 0.068478 0.201257
-1.297078 -0.427570 2.160342 -0.950774 0.294107 0.097415 0.034411 0.149107
-1.245653 -0.418182 2.299920 -0.760063 0.343181 0.551805 0.090038 0.167985
-1.265355 -0.608002 2.271320 -0.843928 -0.289712 0.451430 0.095395 0.092847
-1.277343 -0.494296 2.271689 -0.897671 0.058809 0.436689 0.082283 0.136086
-1.129849 -0.795859 2.201417 -0.419813 -0.879696 0.223304 0.113936 0.013256
-1.196958 -0.518916 2.373458 -0.638356 0.009735 0.769646 0.133496 0.137743
-1.172269 -0.719283 2.299388 -0.566668 -0.621601 0.540788 0.132266 0.053374
-1.002086 -0.207158 2.173653 -0.015381 0.988556 0.149876 0.105716 0.359222
-1.142170 -0.241294 2.164648 -0.480544 0.873104 0.082125 0.056694 0.379937
-1.094590 -0.241000 2.241941 -0.301614 0.879086 0.369030 0.059736 0.348397
-1.167598 -0.614080 2.380720 -0.530320 -0.311533 0.788446 0.150458 0.102321
-1.129849 -0.795859 2.201417 -0.419813 -0.879696 0.223304 0.590142 0.204250
-1.031800 -0.831765 2.108203 -0.103336 -0.992767 -0.061007 0.593215 0.239054
-1.010745 -0.820315 2.219783 -0.045778 -0.951292 0.304819 0.559252 0.239408
-1.116343 -0.429406 2.411296 -0.373730 0.288308 0.881558 0.151851 0.175603
-1.080096 -0.751211 2.331974 -0.236030 -0.736808 0.633534 0.162752 0.044520
-1.023724 -0.273810 2.326394 -0.065706 0.779534 0.622883 0.068312 0.304439
-0.943917 -0.233404 2.255994 0.185125 0.905362 0.382122 0.110479 0.319342
-1.167598 -0.614080 2.380720 -0.530320 -0.311533 0.788446 0.279551 0.000000
-1.080096 -0.751211 2.331974 -0.236030 -0.736808 0.633534 0.326764 0.039009
-1.022020 -0.664988 2.408128 -0.088534 -0.436201 0.895444 0.278641 0.044041
-1.116343 -0.429406 2.411296 -0.373730 0.288308 0.881558 0.205908 0.012209
-1.059045 -0.550403 2.438773 -0.193793 -0.093570 0.976562 0.237485 0.025782
-0.940579 -0.512756 2.443509 0.167760 0.002777 0.985809 0.212496 0.065463
-0.939218 -0.702551 2.383337 0.207984 -0.570879 0.794214 0.287943 0.077100
-1.092062 -0.323961 2.360378 -0.339183 0.602496 0.722434 0.036213 0.296694
-1.116343 -0.429406 2.411296 -0.373730 0.288308 0.881558 0.014290 0.265808
-0.971577 -0.370628 2.407017 0.067934 0.459609 0.885495 0.068331 0.252900
-1.010745 -0.820315 2.219783 -0.045778 -0.951292 0.304819 0.363041 0.084755
-0.904120 -0.795603 2.254065 0.289346 -0.868892 0.401593 0.338612 0.114448
-0.940579 -0.512756 2.443509 0.167760 0.002777 0.985809 0.066851 0.209863
-0.860532 -0.427554 2.398891 0.444868 0.301553 0.843257 0.106401 0.225343
-0.807705 -0.720901 2.286941 0.602924 -0.639424 0.477035 0.298173 0.141149
-0.822522 -0.550729 2.391509 0.540483 -0.116398 0.833247 0.223220 0.115984
-0.789924 -0.621566 2.344648 0.653218 -0.318064 0.687094 0.252483 0.136151
-0.860532 -0.427554 2.398891 0.444868 0.301553 0.843257 0.183148 0.102062
-0.752336 -0.451529 2.320893 0.768334 0.210273 0.604480 0.194400 0.154457
-0.874896 -0.312122 2.337249 0.399579 0.640217 0.656056 0.117065 0.268066
-0.752336 -0.451529 2.320893 0.768334 0.210273 0.604480 0.157207 0.225528
-0.806274 -0.287002 2.233011 0.606800 0.721641 0.333140 0.160658 0.292256
-0.720837 -0.425549 2.248443 0.884701 0.316691 0.341960 0.182173 0.246758
-0.720840 -0.612288 2.248446 0.877926 -0.294168 0.377697 0.259078 0.178958
-0.943259 -0.211080 2.101682 0.171819 0.982635 -0.069765 0.138951 0.369945
-0.791153 -0.756276 2.133998 0.656178 -0.753197 0.045961 0.334754 0.177129
-0.861914 -0.235675 2.089618 0.432539 0.892483 -0.127750 0.168631 0.354807
-0.794004 -0.279145 2.132134 0.651845 0.758324 0.001343 0.183148 0.322012
-0.720837 -0.425549 2.248443 0.884701 0.316691 0.341960 0.183148 0.501680
-0.684469 -0.529165 2.177646 0.988891 -0.020539 0.147099 0.207510 0.457519
-0.727928 -0.356803 2.125981 0.867916 0.496689 0.001343 0.227597 0.527138
-0.720840 -0.612288 2.248446 0.877926 -0.294168 0.377697 0.188448 0.430901
-0.720850 -0.669385 2.124607 0.885311 -0.464980 -0.000366 0.236033 0.407850
-0.791153 -0.756276 2.133998 0.656178 -0.753197 0.045961 0.559397 0.333208
-0.908414 -0.821502 2.130435 0.285867 -0.958251 0.005219 0.567483 0.281551
-0.847073 -0.781546 2.046788 0.480239 -0.832942 -0.274819 0.589453 0.316452
-0.701318 -0.436825 2.059457 0.938475 0.259224 -0.228065 0.251005 0.493063
-0.697975 -0.549812 2.040086 0.948393 -0.112522 -0.296426 0.260955 0.449642
-0.794004 -0.279145 2.132134 0.651845 0.758324 0.001343 0.231932 0.564059
-0.786001 -0.318157 2.013938 0.667928 0.642598 -0.375347 0.275839 0.547027
-0.763095 -0.697077 2.011347 0.754692 -0.534440 -0.380444 0.284496 0.400805
-0.763095 -0.697077 2.011347 0.754692 -0.534440 -0.380444 0.602420 0.363201
-0.755320 -0.544586 1.931817 0.773034 -0.094455 -0.627277 0.308648 0.456825
-0.764324 -0.425076 1.942359 0.745476 0.292001 -0.599139 0.302546 0.503254
-0.939666 -0.236756 2.003793 0.215369 0.874294 -0.434950 0.156471 0.394026
-0.755320 -0.544586 1.931817 0.773034 -0.094455 -0.627277 0.655214 0.399357
-0.834969 -0.702923 1.929438 0.506790 -0.574602 -0.642628 0.637611 0.343986
-0.857421 -0.608008 1.863394 0.445692 -0.280587 -0.850032 0.680024 0.358425
-0.861914 -0.235675 2.089618 0.432539 0.892483 -0.127750 0.255546 0.587672
-0.852892 -0.332213 1.920277 0.445967 0.606830 -0.657857 0.319932 0.548140
-0.939666 -0.236756 2.003793 0.215369 0.874294 -0.434950 0.297812 0.595010
-0.852731 -0.485356 1.853810 0.462416 0.118686 -0.878658 0.348927 0.489319
-0.941002 -0.800573 1.998766 0.181890 -0.881497 -0.435682 0.615869 0.284595
-0.914087 -0.372843 1.865479 0.261605 0.467971 -0.844111 0.349595 0.538983
-0.972322 -0.707500 1.876818 0.084628 -0.595325 -0.798975 0.675797 0.300127
-0.939666 -0.236756 2.003793 0.215369 0.874294 -0.434950 0.516371 0.021829
-0.852892 -0.332213 1.920277 0.445967 0.606830 -0.657857 0.556047 0.067220
-1.040986 -0.303372 1.901428 -0.147069 0.666494 -0.730827 0.493448 0.068810
-0.852731 -0.485356 1.853810 0.462416 0.118686 -0.878658 0.706846 0.382618
-0.961982 -0.549787 1.819637 0.092563 -0.105899 -0.990051 0.722666 0.336307
-0.996010 -0.426575 1.829531 0.019288 0.289224 -0.957060 0.514904 0.123076
-0.961982 -0.549787 1.819637 0.092563 -0.105899 -0.990051 0.522376 0.165591
-1.087953 -0.450492 1.835628 -0.299783 0.215369 -0.929350 0.479879 0.133787
-1.080537 -0.766009 1.955079 -0.268899 -0.769372 -0.579394 0.659741 0.246231
-1.083435 -0.644643 1.851302 -0.262551 -0.387677 -0.883572 0.469047 0.196639
-1.161816 -0.553081 1.862685 -0.517045 -0.114353 -0.848262 0.443891 0.166427
-1.218794 -0.393183 1.936848 -0.679678 0.402539 -0.613147 0.419653 0.099710
-1.201558 -0.667454 1.940519 -0.632099 -0.447707 -0.632405 0.704847 0.223287
-1.199025 -0.723894 2.001070 -0.630696 -0.663167 -0.402966 0.675270 0.209277
-1.192889 -0.312499 1.993848 -0.594348 0.672292 -0.441237 0.423749 0.059953
-1.201558 -0.667454 1.940519 -0.632099 -0.447707 -0.632405 0.411227 0.191690
-1.117855 -0.241465 2.035891 -0.405286 0.862117 -0.304056 0.447318 0.024415
-1.274339 -0.614212 2.009563 -0.875912 -0.289407 -0.385968 0.376745 0.162951
-1.220705 -0.487102 1.909459 -0.718436 0.065493 -0.692465 0.418635 0.137163
-1.298849 -0.490518 2.042084 -0.950591 0.107303 -0.291208 0.369018 0.115429
-1.199025 -0.723894 2.001070 -0.630696 -0.663167 -0.402966 0.026555 0.018564
-1.274339 -0.614212 2.009563 -0.875912 -0.289407 -0.385968 0.005412 0.061426
-1.142148 -0.794868 2.078362 -0.460219 -0.872524 -0.163945 0.069825 0.000000
-1.047154 -0.211249 2.092950 -0.154759 0.981475 -0.112796 0.104002 0.390641
-1.253386 -0.337912 2.086829 -0.808557 0.574816 -0.125614 0.008366 0.174787
-1.298849 -0.490518 2.042084 -0.950591 0.107303 -0.291208 0.000044 0.112078
0.804110 -0.457984 -1.397457 -0.750511 0.611103 -0.251473 0.153712 0.810380
0.780768 -0.518917 -1.384085 -0.993591 0.012909 -0.112247 0.159581 0.832071
0.801406 -0.466339 -1.341583 -0.777154 0.544420 0.315592 0.135648 0.817926
0.848236 -0.426478 -1.365336 -0.283853 0.956389 0.068575 0.875231 0.346865
0.804110 -0.457984 -1.397457 -0.750511 0.611103 -0.251473 0.884825 0.359637
0.801406 -0.466339 -1.341583 -0.777154 0.544420 0.315592 0.865357 0.367890
0.798740 -0.571722 -1.394222 -0.794244 -0.569720 -0.211066 0.166557 0.852717
0.850565 -0.611426 -1.384084 -0.297494 -0.947905 -0.113681 0.159941 0.873406
0.804884 -0.571461 -1.329017 -0.734489 -0.538621 0.412763 0.142937 0.858668
0.839986 -0.460862 -1.302771 -0.380932 0.574328 0.724570 0.849249 0.358357
0.789838 -0.517984 -1.326809 -0.877651 0.026124 0.478530 0.138207 0.837388
0.845282 -0.537690 -1.279483 -0.307169 -0.168340 0.936613 0.115804 0.854050
0.845282 -0.537690 -1.279483 -0.307169 -0.168340 0.936613 0.826329 0.360263
0.902156 -0.476239 -1.286903 0.279305 0.416089 0.865322 0.833845 0.337313
0.845282 -0.537690 -1.279483 -0.307169 -0.168340 0.936613 0.787811 0.961043
0.846281 -0.600138 -1.327631 -0.297037 -0.826075 0.478866 0.788091 0.929919
0.909118 -0.560683 -1.288399 0.308908 -0.430982 0.847804 0.809173 0.950724
0.902156 -0.476239 -1.286903 0.279305 0.416089 0.865322 0.815629 0.978758
0.949304 -0.522489 -1.308150 0.769555 -0.018128 0.638295 0.830275 0.958311
0.895461 -0.433090 -1.330158 0.221259 0.874325 0.431959 0.856975 0.333777
0.963607 -0.485092 -1.346236 0.902585 0.331370 0.274758 0.844251 0.306848
0.934977 -0.443898 -1.368998 0.641316 0.762261 0.087497 0.862910 0.314159
0.963607 -0.485092 -1.346236 0.902585 0.331370 0.274758 0.928412 0.350753
0.951190 -0.576718 -1.345120 0.789544 -0.551164 0.269784 0.899004 0.366888
0.966365 -0.520518 -1.410967 0.926328 -0.027711 -0.375652 0.902342 0.339004
0.950621 -0.563783 -1.412424 0.764122 -0.490463 -0.418958 0.888152 0.344318
0.953066 -0.477725 -1.414010 0.767388 0.441237 -0.465163 0.915785 0.327402
0.934977 -0.443898 -1.368998 0.641316 0.762261 0.087497 0.937140 0.330958
0.910675 -0.431618 -1.399270 0.327860 0.891446 -0.312723 0.934708 0.315360
0.950621 -0.563783 -1.412424 0.764122 -0.490463 -0.418958 0.971876 0.286085
0.920449 -0.604708 -1.382818 0.459212 -0.881191 -0.112186 0.950113 0.294158
0.890539 -0.603303 -1.418631 0.178350 -0.846217 -0.502029 0.945818 0.277226
0.913893 -0.544841 -1.457178 0.398297 -0.269845 -0.876644 0.884825 0.320963
0.901879 -0.486040 -1.458863 0.287210 0.357646 -0.888577 0.903767 0.306848
0.850565 -0.611426 -1.384084 -0.297494 -0.947905 -0.113681 0.927287 0.278876
0.913893 -0.544841 -1.457178 0.398297 -0.269845 -0.876644 0.970325 0.262180
0.848315 -0.581615 -1.443044 -0.290445 -0.616993 -0.731376 0.940510 0.257173
0.910675 -0.431618 -1.399270 0.327860 0.891446 -0.312723 0.791773 0.038420
0.901879 -0.486040 -1.458863 0.287210 0.357646 -0.888577 0.810908 0.014218
0.855921 -0.445065 -1.433635 -0.177892 0.749748 -0.637318 0.811728 0.039291
0.913893 -0.544841 -1.457178 0.398297 -0.269845 -0.876644 0.823854 0.000000
0.855180 -0.520833 -1.465877 -0.207251 -0.009796 -0.978210 0.833839 0.015885
0.819485 -0.483852 -1.440489 -0.581469 0.359447 -0.729820 0.832892 0.037877
0.848315 -0.581615 -1.443044 -0.290445 -0.616993 -0.731376 0.852076 0.010885
0.801841 -0.528773 -1.434355 -0.761528 -0.103336 -0.639821 0.850167 0.034284
0.804110 -0.457984 -1.397457 -0.750511 0.611103 -0.251473 0.828892 0.057517
0.848236 -0.426478 -1.365336 -0.283853 0.956389 0.068575 0.806948 0.062137
0.780768 -0.518917 -1.384085 -0.993591 0.012909 -0.112247 0.852028 0.053794
0.801841 -0.528773 -1.434355 -0.761528 -0.103336 -0.639821 0.175081 0.833575
0.890049 -0.608433 -1.341066 0.168371 -0.921873 0.348979 0.934529 0.299245
0.910675 -0.431618 -1.399270 0.327860 0.891446 -0.312723 0.877965 0.319233
2.234123 0.586756 -0.030290 -0.789422 0.587329 -0.178381 0.560643 0.681692
2.204964 0.515404 -0.054369 -0.943297 0.205084 -0.260903 0.562232 0.651418
2.233333 0.568352 0.065394 -0.833094 0.443098 0.330973 0.592701 0.694140
2.211911 0.397958 -0.020522 -0.924833 -0.365246 -0.106052 0.596264 0.618314
2.272495 0.321805 0.045021 -0.617786 -0.753685 0.224189 0.641000 0.607766
2.233332 0.377245 0.065395 -0.815119 -0.457259 0.355602 0.629657 0.629000
2.276984 0.627119 0.047265 -0.588183 0.773522 0.235847 0.583401 0.712464
2.205707 0.472796 0.061863 -0.954772 0.006958 0.297159 0.605383 0.659708
2.259936 0.472795 0.149603 -0.668508 -0.005188 0.743645 0.640944 0.679199
2.284604 0.566293 0.134845 -0.554308 0.472427 0.685202 0.622680 0.709219
2.317238 0.365572 0.152298 -0.381848 -0.546037 0.745659 0.672317 0.645603
2.276984 0.627119 0.047265 -0.588183 0.773522 0.235847 0.830867 0.156526
2.284604 0.566293 0.134845 -0.554308 0.472427 0.685202 0.807068 0.191182
2.348183 0.644845 0.091167 -0.265908 0.844722 0.464431 0.802311 0.154158
2.341156 0.286889 0.051787 -0.263497 -0.922178 0.283059 0.661557 0.600095
2.365880 0.557325 0.180446 -0.142491 0.423017 0.894833 0.652006 0.718538
2.359732 0.445547 0.193633 -0.192969 -0.136174 0.971679 0.676512 0.682763
2.365880 0.557325 0.180446 -0.142491 0.423017 0.894833 0.771299 0.191127
2.413533 0.628979 0.123748 0.118625 0.740043 0.661977 0.773025 0.154032
2.365880 0.557325 0.180446 -0.142491 0.423017 0.894833 0.427234 0.723880
2.359732 0.445547 0.193633 -0.192969 -0.136174 0.971679 0.402522 0.696070
2.443140 0.491777 0.196013 0.230384 0.108249 0.967040 0.439425 0.700651
2.445906 0.375515 0.168659 0.250374 -0.480514 0.840480 0.419771 0.660382
2.443140 0.491777 0.196013 0.230384 0.108249 0.967040 0.733959 0.190260
2.517124 0.558191 0.137090 0.575213 0.445418 0.686056 0.726346 0.148108
2.489065 0.641904 0.058766 0.471114 0.839259 0.271401 0.758742 0.117130
2.521255 0.471079 0.155767 0.631977 -0.062441 0.772454 0.464633 0.676042
2.408196 0.663940 0.053396 0.047243 0.965911 0.254433 0.790042 0.127981
2.440119 0.303370 0.101036 0.210334 -0.835749 0.507218 0.408701 0.623472
2.541751 0.364056 0.086465 0.721885 -0.539232 0.433637 0.455772 0.625896
2.542018 0.600247 0.049390 0.742729 0.633381 0.217109 0.736597 0.109752
2.580935 0.483194 0.080297 0.918149 0.046113 0.393506 0.492537 0.653933
2.484692 0.293613 -0.006628 0.475723 -0.879543 0.006684 0.429594 0.588699
2.542018 0.600247 0.049390 0.742729 0.633381 0.217109 0.213551 0.698280
2.580935 0.483194 0.080297 0.918149 0.046113 0.393506 0.186087 0.656271
2.580044 0.553684 -0.009578 0.921720 0.384655 -0.049287 0.223930 0.671239
2.592197 0.428156 -0.006178 0.977599 -0.209021 -0.024445 0.491891 0.615272
2.555055 0.355515 -0.043613 0.783502 -0.574999 -0.235450 0.467982 0.589267
2.539807 0.588370 -0.081284 0.707877 0.570269 -0.416730 0.258592 0.677830
2.489065 0.641904 0.058766 0.471114 0.839259 0.271401 0.222503 0.718344
2.592197 0.428156 -0.006178 0.977599 -0.209021 -0.024445 0.209663 0.624457
2.570557 0.472796 -0.097799 0.870144 -0.009949 -0.492691 0.249176 0.631026
2.570557 0.472796 -0.097799 0.870144 -0.009949 -0.492691 0.029054 0.735252
2.555055 0.355515 -0.043613 0.783502 -0.574999 -0.235450 0.007674 0.692385
2.481528 0.378911 -0.155881 0.442244 -0.474685 -0.760949 0.058564 0.701649
2.512984 0.472796 -0.162926 0.607746 0.006104 -0.794092 0.281262 0.626759
2.467041 0.548304 -0.171382 0.373760 0.383709 -0.844417 0.298322 0.656660
2.512984 0.472796 -0.162926 0.607746 0.006104 -0.794092 0.061477 0.733657
2.431530 0.445289 -0.194748 0.168187 -0.136814 -0.976196 0.090063 0.713109
2.475718 0.643343 -0.070853 0.411969 0.842494 -0.347026 0.787490 0.609110
2.417944 0.602738 -0.148855 0.117801 0.662923 -0.739341 0.773967 0.639317
2.362797 0.652497 -0.083485 -0.160375 0.887600 -0.431745 0.749498 0.608798
2.467041 0.548304 -0.171382 0.373760 0.383709 -0.844417 0.789883 0.662228
2.431530 0.445289 -0.194748 0.168187 -0.136814 -0.976196 0.771187 0.701499
2.364647 0.527757 -0.189377 -0.151372 0.265908 -0.952025 0.753770 0.672939
2.347021 0.416181 -0.188298 -0.249184 -0.289285 -0.924223 0.110380 0.684086
2.460314 0.303413 -0.088496 0.317667 -0.833674 -0.451704 0.040501 0.665076
2.418770 0.274921 0.000000 0.095126 -0.995453 0.002747 0.028830 0.630982
2.345985 0.286787 -0.052822 -0.245643 -0.928526 -0.278268 0.064224 0.626211
2.347021 0.416181 -0.188298 -0.249184 -0.289285 -0.924223 0.737332 0.709823
2.420388 0.669867 -0.010103 0.134831 0.988952 -0.061525 0.796219 0.104757
2.362797 0.652497 -0.083485 -0.160375 0.887600 -0.431745 0.824615 0.095142
2.329193 0.661025 -0.020598 -0.361675 0.926786 -0.101108 0.827740 0.120293
2.308562 0.595249 -0.135377 -0.455306 0.610645 -0.647908 0.732128 0.638954
2.273303 0.513406 -0.152435 -0.612232 0.209326 -0.762413 0.714533 0.669834
2.379669 0.326604 -0.135272 -0.095279 -0.719138 -0.688284 0.078090 0.659993
2.264178 0.364702 -0.108431 -0.632771 -0.551500 -0.543504 0.110418 0.635924
2.204964 0.515404 -0.054369 -0.943297 0.205084 -0.260903 0.676512 0.648209
2.234123 0.586756 -0.030290 -0.789422 0.587329 -0.178381 0.690003 0.619318
2.329193 0.661025 -0.020598 -0.361675 0.926786 -0.101108 0.729434 0.592517
2.240069 0.445208 -0.125095 -0.772301 -0.139500 -0.619709 0.560664 0.615114
2.264178 0.364702 -0.108431 -0.632771 -0.551500 -0.543504 0.585355 0.591959
2.281716 0.316248 -0.041566 -0.587725 -0.784173 -0.199011 0.084012 0.615542
2.341156 0.286889 0.051787 -0.263497 -0.922178 0.283059 0.041082 0.605001
2.281716 0.316248 -0.041566 -0.587725 -0.784173 -0.199011 0.617744 0.589291
2.276984 0.627119 0.047265 -0.588183 0.773522 0.235847 0.698208 0.589291
-3.333598 -0.000322 -0.903278 -0.757775 0.643727 -0.106510 0.483243 0.205848
-3.391490 -0.110981 -0.908007 -0.955504 0.280435 -0.091159 0.506402 0.241253
-3.330360 -0.021891 -0.762684 -0.745872 0.570482 0.343760 0.436424 0.226149
-3.242752 0.068913 -0.906136 -0.467483 0.876675 -0.113498 0.252606 0.388671
-3.333598 -0.000322 -0.903278 -0.757775 0.643727 -0.106510 0.217574 0.393354
-3.225551 0.071479 -0.802702 -0.432234 0.864711 0.255745 0.237899 0.355995
-3.402925 -0.262130 -0.899348 -0.973357 -0.197577 -0.116306 0.522766 0.297418
-3.394566 -0.192101 -0.782577 -0.950774 0.060945 0.303781 0.472754 0.281932
-3.334731 -0.393353 -0.825911 -0.757561 -0.635395 0.149419 0.502496 0.359303
-3.235052 -0.471354 -0.925087 -0.442305 -0.884030 -0.151097 0.531329 0.389683
-3.230968 -0.472432 -0.820401 -0.434889 -0.882504 0.178930 0.494467 0.399357
-3.133318 0.103844 -0.848705 -0.121067 0.989410 0.079928 0.279952 0.356649
-3.330360 -0.021891 -0.762684 -0.745872 0.570482 0.343760 0.189401 0.348377
-3.337837 -0.172328 -0.682033 -0.771599 0.081881 0.630787 0.427098 0.288534
-3.390735 -0.286739 -0.819617 -0.928068 -0.309397 0.207190 0.496130 0.314558
-3.320577 -0.320630 -0.694128 -0.726737 -0.391034 0.564714 0.446093 0.344642
-3.258637 -0.302299 -0.632113 -0.499161 -0.317026 0.806421 0.413226 0.349019
-3.211828 -0.430029 -0.698207 -0.382214 -0.744865 0.546861 0.444206 0.395704
-3.298588 -0.057197 -0.687608 -0.635914 0.453017 0.624775 0.183148 0.313966
-3.201581 -0.022560 -0.642503 -0.341319 0.583819 0.736625 0.208752 0.287921
-3.298588 -0.057197 -0.687608 -0.635914 0.453017 0.624775 0.409758 0.248785
-3.228465 -0.157237 -0.597298 -0.413923 0.155919 0.896847 0.379690 0.300624
-3.201581 -0.022560 -0.642503 -0.341319 0.583819 0.736625 0.375667 0.249012
-3.183743 -0.230079 -0.580624 -0.259926 -0.120853 0.958007 0.375794 0.333597
-3.145648 0.070800 -0.738138 -0.159978 0.866451 0.472915 0.251887 0.321308
-3.258637 -0.302299 -0.632113 -0.499161 -0.317026 0.806421 0.615924 0.399357
-3.167522 -0.394194 -0.647240 -0.212897 -0.602069 0.769524 0.650125 0.424321
-3.096156 -0.340912 -0.600752 0.017457 -0.441359 0.897122 0.622923 0.448497
-3.228465 -0.157237 -0.597298 -0.413923 0.155919 0.896847 0.560824 0.420055
-3.183743 -0.230079 -0.580624 -0.259926 -0.120853 0.958007 0.581426 0.426025
-3.066665 -0.197557 -0.566502 0.100253 0.023835 0.994659 0.568504 0.468859
-3.211828 -0.430029 -0.698207 -0.382214 -0.744865 0.546861 0.672778 0.412168
-3.069887 -0.439064 -0.684353 0.105960 -0.791345 0.602069 0.673755 0.459567
-3.100981 -0.028154 -0.615691 0.016327 0.536882 0.843471 0.236972 0.259020
-3.228465 -0.157237 -0.597298 -0.413923 0.155919 0.896847 0.183160 0.255599
-3.066665 -0.197557 -0.566502 0.100253 0.023835 0.994659 0.229260 0.206901
-2.956618 -0.144763 -0.605936 0.463881 0.179174 0.867580 0.277141 0.205848
-2.975091 -0.391606 -0.669013 0.404767 -0.613544 0.677999 0.655491 0.495871
-2.961895 -0.289008 -0.615831 0.461379 -0.266243 0.846309 0.610180 0.503567
-3.042721 0.073921 -0.746250 0.176061 0.883908 0.433180 0.288348 0.303568
-2.975091 -0.008390 -0.669011 0.409803 0.602222 0.685080 0.291118 0.252710
-3.043118 0.099341 -0.850628 0.197058 0.977935 0.069124 0.310465 0.338284
-2.944524 -0.437761 -0.756411 0.489822 -0.778069 0.393262 0.690102 0.514364
-2.949767 0.037361 -0.753516 0.498978 0.774987 0.387799 0.319066 0.280296
-2.956618 -0.144763 -0.605936 0.463881 0.179174 0.867580 0.560643 0.518901
-2.866366 -0.310749 -0.704277 0.762871 -0.345592 0.546403 0.637482 0.547745
-3.113215 -0.496284 -0.790475 -0.035890 -0.957305 0.286813 0.715571 0.453393
-3.020791 -0.495480 -0.845496 0.276528 -0.954314 0.113132 0.728091 0.494046
-2.870648 -0.141957 -0.676191 0.747063 0.172369 0.641987 0.320275 0.209293
-2.863975 -0.025866 -0.775297 0.758751 0.563250 0.327067 0.348781 0.257731
-2.870648 -0.141957 -0.676191 0.747063 0.172369 0.641987 0.575807 0.559637
-2.806731 -0.227674 -0.787668 0.952727 -0.102878 0.285806 0.628962 0.589291
-2.956674 0.069574 -0.850398 0.482864 0.872311 0.076754 0.337873 0.315413
-2.890030 -0.425170 -0.837712 0.684378 -0.719748 0.116337 0.704246 0.546524
-2.826289 -0.341196 -0.882932 0.891537 -0.452864 -0.006409 0.687068 0.584194
-2.812878 -0.108952 -0.813593 0.933164 0.295022 0.205206 0.151719 0.552198
-2.806731 -0.227674 -0.787668 0.952727 -0.102878 0.285806 0.128389 0.591776
-2.799569 -0.139795 -0.902901 0.973235 0.203650 -0.106265 0.117784 0.542720
-2.890030 -0.425170 -0.837712 0.684378 -0.719748 0.116337 0.685632 0.191182
-3.020791 -0.495480 -0.845496 0.276528 -0.954314 0.113132 0.628899 0.179861
-3.006966 -0.482954 -0.945855 0.305429 -0.923551 -0.231758 0.644273 0.150537
-2.826289 -0.341196 -0.882932 0.891537 -0.452864 -0.006409 0.726346 0.172457
-2.924992 -0.434937 -0.970750 0.574114 -0.755120 -0.316416 0.683038 0.148164
-2.868827 -0.001918 -0.911504 0.758782 0.638539 -0.128239 0.149214 0.490980
-2.849313 -0.084354 -1.012358 0.809320 0.378826 -0.448836 0.098544 0.494136
-2.801725 -0.239605 -0.941963 0.965239 -0.121647 -0.231269 0.080036 0.560944
-2.863656 -0.225012 -1.068153 0.773522 -0.056215 -0.631245 0.044765 0.517711
-2.966103 0.061753 -0.971132 0.447676 0.828791 -0.335643 0.145267 0.443278
-2.862028 -0.344350 -1.001378 0.782037 -0.466262 -0.413495 0.723459 0.132232
-2.926622 -0.326597 -1.096781 0.578326 -0.414686 -0.702536 0.712550 0.089436
-2.931414 -0.078659 -1.103980 0.539567 0.396771 -0.742546 0.070460 0.457727
-2.862028 -0.344350 -1.001378 0.782037 -0.466262 -0.413495 0.033145 0.565942
-2.926622 -0.326597 -1.096781 0.578326 -0.414686 -0.702536 0.007674 0.528361
-2.994499 -0.345830 -1.123156 0.304819 -0.494034 -0.814234 0.688080 0.073591
-2.982006 -0.231250 -1.156081 0.416120 -0.087649 -0.905057 0.715763 0.043258
-2.982006 -0.231250 -1.156081 0.416120 -0.087649 -0.905057 0.013477 0.479205
-3.040801 -0.169285 -1.175522 0.173681 0.118442 -0.977630 0.022135 0.447678
-3.100000 0.100289 -0.933522 -0.000519 0.982635 -0.185492 0.307903 0.373666
-2.966103 0.061753 -0.971132 0.447676 0.828791 -0.335643 0.358357 0.350532
-3.078519 0.071460 -1.014836 0.069277 0.875088 -0.478927 0.329758 0.387409
-3.025117 -0.433633 -1.058187 0.256325 -0.755089 -0.603412 0.656349 0.104699
-3.117363 -0.504048 -0.912385 -0.069643 -0.990143 -0.121372 0.599928 0.144993
-3.120018 -0.472536 -1.014701 -0.068270 -0.888546 -0.453658 0.613254 0.108382
-3.040801 -0.169285 -1.175522 0.173681 0.118442 -0.977630 0.708459 0.014784
-3.079470 -0.294713 -1.164206 0.041231 -0.301737 -0.952483 0.671676 0.036357
-3.138129 -0.401256 -1.102997 -0.106662 -0.658071 -0.745323 0.627295 0.065161
-3.040801 -0.169285 -1.175522 0.173681 0.118442 -0.977630 0.523596 0.442807
-3.079470 -0.294713 -1.164206 0.041231 -0.301737 -0.952483 0.558763 0.474729
-3.211967 -0.224255 -1.160138 -0.365795 -0.072817 -0.927824 0.528844 0.512778
-3.194395 -0.344883 -1.128616 -0.322550 -0.467666 -0.822932 0.620363 0.036452
-3.051976 0.008356 -1.097932 0.166784 0.676138 -0.717612 0.448815 0.431136
-3.102438 -0.051898 -1.143913 -0.016724 0.481429 -0.876309 0.476002 0.452275
-3.231392 0.022999 -1.045752 -0.417615 0.710471 -0.566393 0.423085 0.498598
-3.171577 0.072871 -0.995585 -0.228004 0.890255 -0.394208 0.398687 0.475985
-3.100000 0.100289 -0.933522 -0.000519 0.982635 -0.185492 0.379241 0.453503
-3.078519 0.071460 -1.014836 0.069277 0.875088 -0.478927 0.408266 0.441000
-3.235194 -0.434932 -1.018112 -0.425794 -0.750664 -0.505142 0.580941 0.079485
-3.194395 -0.344883 -1.128616 -0.322550 -0.467666 -0.822932 0.560643 0.526222
-3.287359 -0.291441 -1.098733 -0.614765 -0.299783 -0.729484 0.532128 0.555287
-3.194407 -0.124408 -1.159881 -0.325205 0.250710 -0.911771 0.498041 0.493068
-3.355639 -0.178337 -1.046569 -0.814966 0.062349 -0.576098 0.480801 0.569911
-3.312831 -0.394620 -0.987544 -0.705161 -0.612659 -0.356853 0.559111 0.066594
-3.287359 -0.291441 -1.098733 -0.614765 -0.299783 -0.729484 0.595718 0.018021
-3.235052 -0.471354 -0.925087 -0.442305 -0.884030 -0.151097 0.566647 0.113926
-3.357859 -0.286608 -1.015293 -0.846278 -0.286569 -0.449049 0.507747 0.588699
-3.291363 -0.051410 -1.063538 -0.627125 0.463118 -0.626240 0.447754 0.528069
-3.358361 -0.110988 -1.012287 -0.849361 0.320658 -0.419172 0.451400 0.565471
-3.333598 -0.000322 -0.903278 -0.757775 0.643727 -0.106510 0.392369 0.553450
-3.242752 0.068913 -0.906136 -0.467483 0.876675 -0.113498 0.375667 0.511471
-3.171577 0.072871 -0.995585 -0.228004 0.890255 -0.394208 0.294652 0.400805
-3.391490 -0.110981 -0.908007 -0.955504 0.280435 -0.091159 0.425605 0.588485
-3.357859 -0.286608 -1.015293 -0.846278 -0.286569 -0.449049 0.559252 0.301089
-3.312831 -0.394620 -0.987544 -0.705161 -0.612659 -0.356853 0.555576 0.348184
-3.355639 -0.178337 -1.046569 -0.814966 0.062349 -0.576098 0.557128 0.258155
-3.358361 -0.110988 -1.012287 -0.849361 0.320658 -0.419172 0.537739 0.235609
-3.113215 -0.496284 -0.790475 -0.035890 -0.957305 0.286813 0.592556 0.179717
-1.142148 -0.794868 2.078362 -0.460219 -0.872524 -0.163945 0.628468 0.210039
-1.211731 -0.315104 2.248532 -0.674001 0.634907 0.377575 0.014350 0.352924
-1.129849 -0.795859 2.201417 -0.419813 -0.879696 0.223304 0.369018 0.047841
-1.092062 -0.323961 2.360378 -0.339183 0.602496 0.722434 0.128515 0.209863
-1.059045 -0.550403 2.438773 -0.193793 -0.093570 0.976562 0.183148 0.132516
-0.908414 -0.821502 2.130435 0.285867 -0.958251 0.005219 0.368927 0.137507
-0.684469 -0.529165 2.177646 0.988891 -0.020539 0.147099 0.239028 0.205848
-0.720837 -0.425549 2.248443 0.884701 0.316691 0.341960 0.194770 0.179765
-0.720850 -0.669385 2.124607 0.885311 -0.464980 -0.000366 0.299767 0.203387
-0.806274 -0.287002 2.233011 0.606800 0.721641 0.333140 0.196352 0.563607
-0.720850 -0.669385 2.124607 0.885311 -0.464980 -0.000366 0.567594 0.373598
-0.857421 -0.608008 1.863394 0.445692 -0.280587 -0.850032 0.349476 0.443465
-0.852731 -0.485356 1.853810 0.462416 0.118686 -0.878658 0.559099 0.132448
-0.914087 -0.372843 1.865479 0.261605 0.467971 -0.844111 0.541040 0.094347
-1.030831 -0.809447 2.015249 -0.110385 -0.919309 -0.377697 0.624761 0.250793
-1.016969 -0.238913 1.986874 -0.058046 0.884396 -0.463057 0.491421 0.029059
-1.083435 -0.644643 1.851302 -0.262551 -0.387677 -0.883572 0.715171 0.275120
-1.016969 -0.238913 1.986874 -0.058046 0.884396 -0.463057 0.132228 0.412188
-1.047154 -0.211249 2.092950 -0.154759 0.981475 -0.112796 0.464819 0.000000
-1.201558 -0.667454 1.940519 -0.632099 -0.447707 -0.632405 0.000000 0.033260
-1.117855 -0.241465 2.035891 -0.405286 0.862117 -0.304056 0.088016 0.414498
0.846281 -0.600138 -1.327631 -0.297037 -0.826075 0.478866 0.139635 0.873494
0.839986 -0.460862 -1.302771 -0.380932 0.574328 0.724570 0.115791 0.822829
0.846281 -0.600138 -1.327631 -0.297037 -0.826075 0.478866 0.921018 0.291469
0.890049 -0.608433 -1.341066 0.168371 -0.921873 0.348979 0.804561 0.923661
0.951190 -0.576718 -1.345120 0.789544 -0.551164 0.269784 0.830208 0.932345
0.949304 -0.522489 -1.308150 0.769555 -0.018128 0.638295 0.826368 0.317510
0.949304 -0.522489 -1.308150 0.769555 -0.018128 0.638295 0.924969 0.366880
0.920449 -0.604708 -1.382818 0.459212 -0.881191 -0.112186 0.821522 0.915217
0.951190 -0.576718 -1.345120 0.789544 -0.551164 0.269784 0.960603 0.306848
0.855180 -0.520833 -1.465877 -0.207251 -0.009796 -0.978210 0.958375 0.242255
0.798740 -0.571722 -1.394222 -0.794244 -0.569720 -0.211066 0.920953 0.257496
0.801841 -0.528773 -1.434355 -0.761528 -0.103336 -0.639821 0.936149 0.239973
2.341156 0.286889 0.051787 -0.263497 -0.922178 0.283059 0.375711 0.617271
2.317238 0.365572 0.152298 -0.381848 -0.546037 0.745659 0.375667 0.667585
2.418770 0.274921 0.000000 0.095126 -0.995453 0.002747 0.403276 0.592298
2.517124 0.558191 0.137090 0.575213 0.445418 0.686056 0.481491 0.696583
2.517124 0.558191 0.137090 0.575213 0.445418 0.686056 0.183148 0.695259
2.475718 0.643343 -0.070853 0.411969 0.842494 -0.347026 0.270152 0.703683
2.475718 0.643343 -0.070853 0.411969 0.842494 -0.347026 0.782989 0.078595
2.555055 0.355515 -0.043613 0.783502 -0.574999 -0.235450 0.222327 0.595422
2.484692 0.293613 -0.006628 0.475723 -0.879543 0.006684 0.012903 0.652946
2.481528 0.378911 -0.155881 0.442244 -0.474685 -0.760949 0.275559 0.595010
2.417944 0.602738 -0.148855 0.117801 0.662923 -0.739341 0.303181 0.682823
2.431530 0.445289 -0.194748 0.168187 -0.136814 -0.976196 0.303110 0.618034
2.264178 0.364702 -0.108431 -0.632771 -0.551500 -0.543504 0.691862 0.709882
2.240069 0.445208 -0.125095 -0.772301 -0.139500 -0.619709 0.692704 0.686677
2.272495 0.321805 0.045021 -0.617786 -0.753685 0.224189 0.067029 0.598048
-3.230968 -0.472432 -0.820401 -0.434889 -0.882504 0.178930 0.559099 0.145388
-3.230968 -0.472432 -0.820401 -0.434889 -0.882504 0.178930 0.713438 0.418377
-3.167522 -0.394194 -0.647240 -0.212897 -0.602069 0.769524 0.415741 0.390896
-2.870648 -0.141957 -0.676191 0.747063 0.172369 0.641987 0.181623 0.582512
-2.863975 -0.025866 -0.775297 0.758751 0.563250 0.327067 0.183148 0.529269
-2.868827 -0.001918 -0.911504 0.758782 0.638539 -0.128239 0.375667 0.302209
-2.826289 -0.341196 -0.882932 0.891537 -0.452864 -0.006409 0.069955 0.598048
-2.956674 0.069574 -0.850398 0.482864 0.872311 0.076754 0.183133 0.470109
-3.051976 0.008356 -1.097932 0.166784 0.676138 -0.717612 0.091211 0.414498
-2.966103 0.061753 -0.971132 0.447676 0.828791 -0.335643 0.406880 0.407031
-2.931414 -0.078659 -1.103980 0.539567 0.396771 -0.742546 0.483836 0.399357
-3.211967 -0.224255 -1.160138 -0.365795 -0.072817 -0.927824 0.638740 0.000000
-3.357859 -0.286608 -1.015293 -0.846278 -0.286569 -0.449049 0.565511 0.028912
3 0 1 2
3 3 4 5
3 6 7 8
3 0 2 9
3 7 0 10
3 1 11 2
3 10 9 12
3 8 10 12
3 2 11 13
3 14 15 16
3 9 13 17
3 18 19 20
3 8 12 21
3 13 11 22
3 6 8 21
3 16 23 24
3 25 26 27
3 28 29 30
3 27 26 31
3 32 33 34
3 29 27 30
3 26 35 36
3 31 26 36
3 34 37 38
3 31 36 39
3 40 31 41
3 42 40 43
3 44 38 45
3 40 41 43
3 46 45 47
3 41 39 48
3 14 24 49
3 39 36 50
3 51 46 52
3 53 54 55
3 54 56 57
3 58 59 60
3 61 54 62
3 63 55 64
3 62 57 65
3 58 60 66
3 61 62 67
3 64 61 68
3 49 51 69
3 70 66 71
3 70 71 72
3 73 74 75
3 68 67 76
3 77 59 19
3 74 76 78
3 71 77 79
3 80 81 82
3 83 72 84
3 85 86 87
3 79 77 88
3 82 85 87
3 87 89 90
3 82 87 91
3 92 88 93
3 82 91 94
3 90 89 95
3 96 82 94
3 90 95 97
3 98 90 97
3 98 97 99
3 91 98 99
3 91 99 4
3 100 1 101
3 102 1 100
3 20 19 59
3 14 49 103
3 104 105 7
3 96 4 3
3 106 107 108
3 109 110 111
3 112 113 114
3 109 111 115
3 116 114 117
3 115 118 119
3 120 121 122
3 123 120 122
3 123 122 124
3 125 119 126
3 125 126 127
3 128 129 130
3 130 129 131
3 128 130 132
3 133 132 134
3 135 136 137
3 130 131 138
3 132 130 139
3 134 132 139
3 137 136 140
3 141 137 142
3 143 144 145
3 144 146 147
3 145 147 148
3 147 149 150
3 145 151 152
3 151 150 153
3 154 112 107
3 155 140 136
3 109 125 156
3 157 158 159
3 160 161 162
3 163 157 159
3 158 160 164
3 159 165 166
3 165 162 167
3 168 169 170
3 161 171 167
3 166 165 172
3 172 165 173
3 170 174 175
3 176 177 178
3 177 179 178
3 174 180 181
3 175 174 181
3 175 181 182
3 178 179 183
3 184 175 182
3 179 185 186
3 183 179 186
3 182 181 187
3 183 186 188
3 186 185 189
3 190 191 192
3 188 186 193
3 193 186 194
3 190 192 195
3 196 190 195
3 192 197 198
3 192 198 195
3 199 200 201
3 195 202 203
3 204 201 205
3 206 207 208
3 209 210 211
3 207 209 211
3 205 201 212
3 213 214 215
3 211 210 216
3 217 218 219
3 220 211 221
3 212 222 223
3 211 216 221
3 220 221 224
3 220 224 225
3 226 220 225
3 227 228 160
3 217 219 184
3 229 215 230
3 160 231 161
3 215 214 230
3 226 225 232
3 233 234 235
3 236 237 238
3 234 239 240
3 241 242 243
3 244 236 238
3 238 237 245
3 235 240 246
3 247 241 248
3 240 247 248
3 249 248 250
3 245 251 252
3 238 245 252
3 246 248 249
3 253 246 254
3 253 254 255
3 254 249 256
3 244 238 257
3 258 259 260
3 261 262 263
3 259 264 265
3 266 267 268
3 266 268 269
3 260 265 270
3 263 260 271
3 272 266 273
3 244 272 274
3 270 265 275
3 272 273 276
3 277 271 278
3 275 279 280
3 273 269 281
3 271 270 278
3 276 273 282
3 270 275 278
3 273 281 282
3 283 278 284
3 272 276 285
3 278 286 287
3 288 289 290
3 291 292 293
3 294 291 295
3 296 288 290
3 296 290 297
3 291 293 295
3 297 298 299
3 296 297 300
3 301 295 302
3 300 297 303
3 299 304 305
3 302 306 307
3 303 308 309
3 310 311 312
3 302 313 306
3 293 314 315
3 313 293 315
3 316 307 317
3 313 315 318
3 306 313 318
3 319 320 321
3 317 318 322
3 323 324 325
3 326 323 325
3 327 328 326
3 318 315 329
3 322 318 329
3 321 330 331
3 332 321 333
3 322 329 334
3 335 322 334
3 315 314 336
3 333 331 337
3 338 333 339
3 325 338 340
3 326 325 341
3 310 342 244
3 340 339 343
3 344 345 239
3 346 344 239
3 347 346 234
3 348 314 292
3 244 274 310
3 239 345 241
3 6 104 7
3 18 349 19
3 11 1 102
3 14 103 15
3 7 10 8
3 10 0 9
3 2 13 9
3 16 15 350
3 9 17 12
3 13 22 17
3 350 32 16
3 351 35 26
3 352 6 21
3 23 16 32
3 353 12 17
3 12 353 21
3 16 24 14
3 25 27 29
3 33 37 34
3 32 34 23
3 44 23 34
3 27 31 30
3 24 23 44
3 44 34 38
3 40 30 31
3 30 40 42
3 41 31 39
3 46 24 44
3 35 354 36
3 41 48 43
3 46 44 45
3 355 43 48
3 51 24 46
3 43 355 356
3 24 51 49
3 357 39 50
3 55 358 53
3 39 357 48
3 358 55 63
3 50 36 354
3 54 61 55
3 62 54 57
3 66 359 58
3 64 55 61
3 73 63 64
3 68 61 67
3 67 62 65
3 59 77 60
3 64 74 73
3 71 66 60
3 74 64 68
3 76 67 360
3 60 77 71
3 68 76 74
3 71 79 72
3 361 85 362
3 82 81 362
3 72 79 84
3 363 77 19
3 364 80 82
3 85 361 86
3 103 49 69
3 82 362 85
3 79 365 84
3 87 86 89
3 88 77 363
3 69 366 103
3 96 364 82
3 79 88 365
3 87 98 91
3 92 365 88
3 98 87 90
3 349 88 363
3 88 349 93
3 364 96 367
3 349 363 19
3 4 94 91
3 101 368 100
3 94 4 96
3 101 0 105
3 7 105 0
3 369 15 103
3 101 1 0
3 107 116 108
3 116 107 114
3 113 370 114
3 371 108 116
3 140 155 372
3 116 117 371
3 117 114 370
3 125 109 115
3 125 115 119
3 121 373 122
3 373 374 122
3 126 119 375
3 122 374 124
3 128 376 129
3 125 127 156
3 373 377 374
3 128 132 133
3 135 378 136
3 139 130 138
3 141 135 137
3 141 142 379
3 152 143 145
3 145 144 147
3 147 150 148
3 137 140 142
3 151 145 148
3 148 150 151
3 380 381 142
3 380 142 140
3 112 114 107
3 158 164 159
3 164 160 162
3 170 219 168
3 164 165 159
3 165 164 162
3 184 219 170
3 167 162 161
3 159 166 163
3 169 174 170
3 173 165 167
3 382 185 383
3 185 382 384
3 383 185 179
3 383 179 177
3 184 170 175
3 178 183 385
3 183 188 385
3 184 182 217
3 386 191 190
3 189 185 384
3 194 186 189
3 191 197 192
3 387 196 195
3 182 388 217
3 198 197 389
3 390 213 200
3 198 202 195
3 201 200 213
3 202 198 391
3 195 203 387
3 213 390 214
3 392 387 203
3 388 218 217
3 213 222 201
3 202 393 203
3 201 222 212
3 207 220 208
3 213 215 222
3 220 207 211
3 223 222 215
3 216 394 395
3 221 216 395
3 226 208 220
3 224 221 395
3 215 229 223
3 160 228 231
3 158 227 160
3 396 229 230
3 235 234 240
3 247 239 241
3 314 348 397
3 240 239 247
3 250 241 243
3 253 235 246
3 241 250 248
3 240 248 246
3 257 238 252
3 254 246 249
3 398 279 264
3 250 399 249
3 266 252 267
3 258 260 262
3 252 266 257
3 272 257 266
3 265 264 279
3 260 259 265
3 263 262 260
3 257 272 244
3 266 269 273
3 271 260 270
3 263 271 277
3 275 265 279
3 283 277 278
3 286 278 275
3 285 276 282
3 286 275 280
3 288 400 289
3 272 285 274
3 400 288 401
3 278 287 284
3 282 402 285
3 290 289 298
3 296 401 288
3 298 289 403
3 300 404 296
3 285 311 274
3 301 294 295
3 403 304 298
3 297 290 298
3 310 274 311
3 299 298 304
3 303 297 299
3 292 314 293
3 405 300 303
3 308 299 305
3 313 295 293
3 299 308 303
3 295 313 302
3 328 406 323
3 324 407 319
3 407 324 323
3 306 317 307
3 319 332 324
3 306 318 317
3 408 317 322
3 326 328 323
3 319 321 332
3 325 324 332
3 332 338 325
3 333 321 331
3 315 336 329
3 332 333 338
3 409 335 334
3 340 338 339
3 325 340 341
3 334 329 336
3 342 236 244
3 346 239 234
3 241 345 242
3 397 336 314
