ply
format ascii 1.0
comment Created by Blender 2.64 (sub 9) - www.blender.org, source file: ''
element vertex 236
property float x
property float y
property float z
property float nx
property float ny
property float nz
property float s
property float t
element face 238
property list uchar uint vertex_indices
end_header
-2.403816 -0.558827 1.470849 0.909513 -0.356487 0.213721 0.923233 0.544091
-2.428573 -0.591609 1.460734 0.612537 -0.776910 0.145573 0.922294 0.530573
-2.426904 -0.573569 1.398364 0.664876 -0.545701 -0.510025 0.944760 0.536840
-2.401934 -0.476134 1.439632 0.895779 0.438704 -0.071322 0.961748 0.587244
-2.403816 -0.558827 1.470849 0.909513 -0.356487 0.213721 0.946688 0.615549
-2.412408 -0.510212 1.389094 0.821070 0.065523 -0.567003 0.938028 0.581308
-2.467531 -0.610395 1.424580 0.232215 -0.933470 -0.273263 0.934140 0.515281
-2.451172 -0.463941 1.379106 0.401196 0.567675 -0.718863 0.947817 0.560437
-2.467070 -0.426673 1.430565 0.276955 0.944395 -0.177038 0.972245 0.561225
-2.486548 -0.438253 1.396687 0.010681 0.820673 -0.571245 0.959341 0.552251
-2.462561 -0.526481 1.354540 0.272622 -0.055757 -0.960479 0.973043 0.533226
-2.497901 -0.569061 1.363568 -0.078799 -0.514756 -0.853694 0.965601 0.513489
-2.486548 -0.438253 1.396687 0.010681 0.820673 -0.571245 0.892813 0.011584
-2.451172 -0.463941 1.379106 0.401196 0.567675 -0.718863 0.908438 0.020099
-2.532802 -0.490089 1.362278 -0.416456 0.240364 -0.876766 0.883349 0.039637
-2.522520 -0.603798 1.417542 -0.325388 -0.886746 -0.328288 0.945000 0.496750
-2.538235 -0.461020 1.387693 -0.487838 0.638905 -0.594775 0.876615 0.025812
-2.534489 -0.432197 1.438285 -0.445387 0.893063 -0.063540 0.868276 0.006922
-2.467070 -0.426673 1.430565 0.276955 0.944395 -0.177038 0.893118 0.000000
-2.497901 -0.569061 1.363568 -0.078799 -0.514756 -0.853694 0.895253 0.063334
-2.554902 -0.568349 1.393603 -0.675558 -0.468245 -0.569506 0.869777 0.063331
-2.577892 -0.481965 1.425574 -0.907132 0.359844 -0.218177 0.855674 0.030302
-2.585349 -0.535831 1.431063 -0.969573 -0.173009 -0.173070 0.852076 0.048617
-2.554902 -0.568349 1.393603 -0.675558 -0.468245 -0.569506 0.132022 0.878670
-2.522520 -0.603798 1.417542 -0.325388 -0.886746 -0.328288 0.151838 0.873494
-2.547645 -0.595362 1.465149 -0.626942 -0.761223 0.165685 0.159657 0.884984
-2.493613 -0.612693 1.474062 -0.006928 -0.954283 0.298715 0.922257 0.503209
-2.547645 -0.595362 1.465149 -0.626942 -0.761223 0.165685 0.935928 0.486760
-2.577892 -0.481965 1.425574 -0.907132 0.359844 -0.218177 0.119460 0.912900
-2.585349 -0.535831 1.431063 -0.969573 -0.173009 -0.173070 0.130985 0.895779
-2.572191 -0.532815 1.501976 -0.837184 -0.130161 0.531175 0.153195 0.912231
-2.534489 -0.432197 1.438285 -0.445387 0.893063 -0.063540 0.120171 0.934241
-2.559953 -0.467752 1.490478 -0.738639 0.528428 0.418500 0.138407 0.932056
-2.462560 -0.429560 1.476836 0.325571 0.896115 0.301523 0.521535 0.674096
-2.534489 -0.432197 1.438285 -0.445387 0.893063 -0.063540 0.551514 0.671858
-2.498274 -0.443471 1.510756 -0.084475 0.761528 0.642567 0.529533 0.692684
-2.526093 -0.577397 1.516073 -0.351085 -0.605914 0.713828 0.174375 0.902649
-2.493613 -0.612693 1.474062 -0.006928 -0.954283 0.298715 0.175012 0.883768
-2.559953 -0.467752 1.490478 -0.738639 0.528428 0.418500 0.551484 0.698490
-2.523601 -0.481018 1.529694 -0.298715 0.371868 0.878872 0.532677 0.708503
-2.507354 -0.526947 1.543649 -0.154057 -0.070559 0.985534 0.175081 0.926095
-2.507354 -0.526947 1.543649 -0.154057 -0.070559 0.985534 0.833991 0.949048
-2.526093 -0.577397 1.516073 -0.351085 -0.605914 0.713828 0.839193 0.925765
-2.453713 -0.568438 1.524077 0.378704 -0.501602 0.777764 0.858558 0.942774
-2.493613 -0.612693 1.474062 -0.006928 -0.954283 0.298715 0.862099 0.915222
-2.507354 -0.526947 1.543649 -0.154057 -0.070559 0.985534 0.520223 0.718065
-2.449374 -0.489366 1.530687 0.392682 0.309091 0.866146 0.504535 0.699595
-2.411291 -0.498653 1.502293 0.813227 0.213691 0.541246 0.492537 0.686157
-2.428573 -0.591609 1.460734 0.612537 -0.776910 0.145573 0.883233 0.932568
-2.467531 -0.610395 1.424580 0.232215 -0.933470 -0.273263 0.881569 0.915217
-2.467070 -0.426673 1.430565 0.276955 0.944395 -0.177038 0.528293 0.658830
3.641323 -0.877984 -0.000005 -0.513169 -0.858241 -0.004822 0.939433 0.369495
3.705066 -0.894978 -0.036541 -0.121982 -0.955290 -0.269234 0.937225 0.391537
3.715906 -0.897359 0.032116 -0.068148 -0.971801 0.225684 0.914686 0.390938
3.584742 -0.773025 0.067792 -0.871090 -0.201209 0.447981 0.350065 0.770749
3.593487 -0.832815 0.010568 -0.833216 -0.546464 0.083956 0.345332 0.739617
3.653507 -0.852003 0.093811 -0.457747 -0.679281 0.573595 0.384508 0.751093
3.626479 -0.724940 0.126152 -0.612018 0.093539 0.785241 0.366024 0.800007
3.682943 -0.816317 0.136428 -0.263833 -0.444380 0.856075 0.395876 0.772616
3.626936 -0.614626 0.011108 -0.621052 0.782525 0.043458 0.607700 0.927641
3.615552 -0.648020 0.069595 -0.691610 0.557207 0.459517 0.586279 0.911240
3.690337 -0.602038 0.063627 -0.221320 0.885006 0.409528 0.613495 0.900259
3.615552 -0.648020 0.069595 -0.691610 0.557207 0.459517 0.332673 0.815398
3.697313 -0.649494 0.127621 -0.179479 0.567766 0.803369 0.364651 0.829044
3.697313 -0.649494 0.127621 -0.179479 0.567766 0.803369 0.594576 0.875269
3.726202 -0.738449 0.159495 -0.015961 0.029054 0.999420 0.395850 0.805517
3.682943 -0.816317 0.136428 -0.263833 -0.444380 0.856075 0.960428 0.626605
3.653507 -0.852003 0.093811 -0.457747 -0.679281 0.573595 0.980417 0.636666
3.766401 -0.876181 0.077548 0.227668 -0.840632 0.491409 0.959210 0.672569
3.726202 -0.738449 0.159495 -0.015961 0.029054 0.999420 0.925176 0.617609
3.774028 -0.814452 0.131609 0.304392 -0.456526 0.835994 0.936617 0.649702
3.726202 -0.738449 0.159495 -0.015961 0.029054 0.999420 0.586258 0.845069
3.777707 -0.667457 0.129076 0.333506 0.478713 0.812128 0.615464 0.850324
3.777707 -0.667457 0.129076 0.333506 0.478713 0.812128 0.892109 0.625637
3.799748 -0.742159 0.140192 0.470290 -0.017243 0.882321 0.908152 0.641150
3.769065 -0.604794 0.068486 0.275643 0.857936 0.433515 0.634464 0.877499
3.822171 -0.848416 0.068996 0.627308 -0.651418 0.426740 0.936959 0.683518
3.849207 -0.715858 0.097415 0.781518 0.193121 0.593188 0.889413 0.659660
3.829699 -0.639683 0.059814 0.683157 0.627155 0.374065 0.650718 0.857433
3.851487 -0.791317 0.080461 0.800134 -0.317820 0.508621 0.911960 0.677744
3.879282 -0.735859 0.034927 0.973754 0.062899 0.218604 0.890256 0.686611
3.832185 -0.859656 -0.000728 0.669973 -0.742302 0.009278 0.940674 0.705928
3.724814 -0.583213 -0.000000 -0.004791 0.999969 -0.004181 0.641458 0.909239
3.795300 -0.601620 -0.023466 0.444380 0.881954 -0.156926 0.665877 0.892794
3.849207 -0.715858 0.097415 0.781518 0.193121 0.593188 0.968842 0.189437
3.879282 -0.735859 0.034927 0.973754 0.062899 0.218604 0.950173 0.176115
3.858653 -0.654947 -0.014003 0.842158 0.533769 -0.076327 0.972272 0.145953
3.829699 -0.639683 0.059814 0.683157 0.627155 0.374065 0.991012 0.163860
3.870327 -0.806067 -0.016234 0.909726 -0.400922 -0.107852 0.915587 0.709882
3.771245 -0.891985 -0.021047 0.287912 -0.947539 -0.138737 0.966836 0.701973
3.858653 -0.654947 -0.014003 0.842158 0.533769 -0.076327 0.676512 0.864612
3.870327 -0.806067 -0.016234 0.909726 -0.400922 -0.107852 0.917244 0.166453
3.878470 -0.735596 -0.041257 0.955870 0.059938 -0.287545 0.938055 0.150447
3.819738 -0.659675 -0.101208 0.591449 0.516770 -0.618946 0.958442 0.110849
3.837547 -0.768506 -0.109924 0.707541 -0.180273 -0.683248 0.917214 0.124808
3.788384 -0.723299 -0.145869 0.394910 0.085879 -0.914670 0.930002 0.098770
3.837547 -0.768506 -0.109924 0.707541 -0.180273 -0.683248 0.966574 0.463588
3.808553 -0.856716 -0.071178 0.543565 -0.704611 -0.456099 0.940420 0.436603
3.764159 -0.843650 -0.118632 0.237922 -0.618854 -0.748589 0.963909 0.425766
3.725035 -0.608675 -0.087514 0.020692 0.825159 -0.564501 0.661606 0.925679
3.679959 -0.857397 -0.100935 -0.272713 -0.719138 -0.639088 0.968156 0.392555
3.716377 -0.774028 -0.155289 -0.055849 -0.209418 -0.976226 0.996816 0.422313
3.625037 -0.775575 -0.121672 -0.617237 -0.210944 -0.757958 1.000000 0.387612
3.723865 -0.676541 -0.146628 -0.027833 0.419660 -0.907224 0.078887 0.767360
3.716377 -0.774028 -0.155289 -0.055849 -0.209418 -0.976226 0.110418 0.784229
3.638388 -0.711146 -0.130388 -0.523667 0.208716 -0.825922 0.079530 0.804299
3.724814 -0.583213 -0.000000 -0.004791 0.999969 -0.004181 0.015392 0.766308
3.725035 -0.608675 -0.087514 0.020692 0.825159 -0.564501 0.044035 0.761993
3.671096 -0.602759 -0.049697 -0.338725 0.890103 -0.304880 0.029348 0.783593
3.632149 -0.643839 -0.085122 -0.570818 0.618397 -0.540086 0.047607 0.800334
3.614082 -0.830345 -0.073083 -0.698691 -0.560961 -0.443922 0.975421 0.371910
3.625037 -0.775575 -0.121672 -0.617237 -0.210944 -0.757958 0.096334 0.819753
3.587602 -0.693187 -0.061646 -0.872463 0.312265 -0.375835 0.054015 0.825817
3.614082 -0.830345 -0.073083 -0.698691 -0.560961 -0.443922 0.100865 0.836592
3.571294 -0.761853 -0.034544 -0.964141 -0.137089 -0.227210 0.067544 0.844680
3.771245 -0.891985 -0.021047 0.287912 -0.947539 -0.138737 0.923464 0.414625
-1.752237 -0.137750 0.160302 -0.767083 0.627522 -0.133183 0.831753 0.162082
-1.780124 -0.201408 0.130129 -0.918546 0.253731 -0.303049 0.830867 0.133265
-1.759932 -0.161270 0.225979 -0.816034 0.473220 0.331828 0.854533 0.167103
-1.774363 -0.289925 0.125551 -0.900784 -0.287667 -0.325236 0.848260 0.102806
-1.749776 -0.341001 0.140187 -0.747734 -0.627552 -0.216895 0.867021 0.089705
-1.765869 -0.306844 0.231519 -0.843226 -0.421491 0.333598 0.884364 0.118947
-1.788658 -0.236423 0.207038 -0.982635 0.032624 0.182623 0.859124 0.136651
-1.691831 -0.382631 0.141368 -0.375835 -0.896969 -0.232734 0.196778 0.879441
-1.625959 -0.399759 0.171229 0.041719 -0.998169 -0.043580 0.211766 0.904502
-1.663260 -0.389123 0.227144 -0.192694 -0.924436 0.329020 0.195703 0.910818
-1.723783 -0.367439 0.199214 -0.592090 -0.790399 0.156987 0.183148 0.886550
-1.723656 -0.180509 0.294394 -0.597003 0.387219 0.702567 0.884764 0.176141
-1.754094 -0.240161 0.278288 -0.779382 0.002838 0.626514 0.886789 0.151401
-1.634260 -0.080661 0.184767 -0.045198 0.998474 0.031159 0.572714 0.873380
-1.711021 -0.102970 0.204446 -0.486190 0.853725 0.186316 0.586258 0.901860
-1.646374 -0.098665 0.249029 -0.131413 0.879360 0.457595 0.558727 0.895711
-1.759932 -0.161270 0.225979 -0.816034 0.473220 0.331828 0.585689 0.926899
-1.723656 -0.180509 0.294394 -0.597003 0.387219 0.702567 0.556945 0.937264
-1.667780 -0.160715 0.314477 -0.222968 0.479110 0.848933 0.539919 0.925377
-1.703789 -0.337014 0.282886 -0.462874 -0.591418 0.660268 0.916162 0.122042
-1.687947 -0.267238 0.324751 -0.340251 -0.159429 0.926695 0.917214 0.154731
-1.667780 -0.160715 0.314477 -0.222968 0.479110 0.848933 0.896250 0.189437
-1.599182 -0.122215 0.281977 0.229011 0.731834 0.641835 0.534194 0.894046
-1.703789 -0.337014 0.282886 -0.462874 -0.591418 0.660268 0.798388 0.833950
-1.663260 -0.389123 0.227144 -0.192694 -0.924436 0.329020 0.828152 0.817185
-1.616167 -0.344154 0.300446 0.057131 -0.643025 0.763695 0.821805 0.848993
-1.598487 -0.257505 0.332518 0.190649 -0.095187 0.977020 0.500601 0.921147
-1.570918 -0.181755 0.314470 0.385113 0.345286 0.855800 0.509233 0.901087
-1.598487 -0.257505 0.332518 0.190649 -0.095187 0.977020 0.812735 0.884822
-1.564779 -0.332187 0.290851 0.467513 -0.552660 0.689901 0.838911 0.860926
-1.574270 -0.381926 0.222363 0.338847 -0.895016 0.289956 0.856084 0.834688
-1.570918 -0.181755 0.314470 0.385113 0.345286 0.855800 0.819360 0.912949
-1.510634 -0.261671 0.282602 0.745750 -0.151372 0.648762 0.851835 0.893105
-1.516514 -0.136765 0.224365 0.709067 0.645466 0.283792 0.521528 0.857557
-1.564743 -0.096678 0.203466 0.411756 0.898251 0.153386 0.546332 0.861045
-1.518764 -0.354373 0.200332 0.697897 -0.697958 0.160466 0.876124 0.851127
-1.477285 -0.287734 0.191781 0.951445 -0.285226 0.115635 0.885533 0.879746
-1.494603 -0.192588 0.249383 0.842891 0.268532 0.466201 0.110418 0.911470
-1.510634 -0.261671 0.282602 0.745750 -0.151372 0.648762 0.110389 0.936848
-1.472598 -0.210599 0.178438 0.979034 0.203589 -0.004456 0.084527 0.913248
-1.477285 -0.287734 0.191781 0.951445 -0.285226 0.115635 0.077257 0.940949
-1.518764 -0.354373 0.200332 0.697897 -0.697958 0.160466 0.252569 0.926181
-1.574270 -0.381926 0.222363 0.338847 -0.895016 0.289956 0.226695 0.926242
-1.566330 -0.376526 0.118765 0.397992 -0.833735 -0.382672 0.241384 0.897438
-1.516514 -0.136765 0.224365 0.709067 0.645466 0.283792 0.107960 0.885949
-1.564743 -0.096678 0.203466 0.411756 0.898251 0.153386 0.102237 0.862441
-1.527696 -0.131178 0.114084 0.650594 0.670492 -0.356578 0.068681 0.870199
-1.608944 -0.090368 0.122113 0.136143 0.926389 -0.351085 0.578114 0.850697
-1.489154 -0.240123 0.100603 0.879513 0.015473 -0.475600 0.051002 0.912522
-1.539392 -0.165133 0.068205 0.550645 0.450911 -0.702445 0.046262 0.875261
-1.505347 -0.318577 0.118802 0.791650 -0.491653 -0.362682 0.044224 0.939497
-1.546437 -0.304391 0.056850 0.492508 -0.429884 -0.756706 0.020694 0.921585
-1.539392 -0.165133 0.068205 0.550645 0.450911 -0.702445 0.819371 0.396816
-1.561134 -0.235434 0.031493 0.420392 0.032746 -0.906735 0.823036 0.429114
-1.644468 -0.198484 0.021381 -0.088565 0.291269 -0.952513 0.795856 0.429435
-1.546437 -0.304391 0.056850 0.492508 -0.429884 -0.756706 0.268597 0.870544
-1.649000 -0.308787 0.031842 -0.083285 -0.440107 -0.894040 0.236893 0.843378
-1.561134 -0.235434 0.031493 0.420392 0.032746 -0.906735 0.279991 0.847578
-1.660374 -0.257823 0.021195 -0.207709 -0.126377 -0.969970 0.244284 0.828600
-1.625252 -0.135436 0.056899 0.045564 0.647481 -0.760674 0.791930 0.400134
-1.698751 -0.116575 0.096688 -0.433760 0.744896 -0.506882 0.758324 0.398072
-1.608944 -0.090368 0.122113 0.136143 0.926389 -0.351085 0.781595 0.373085
-1.639729 -0.374067 0.089747 -0.021516 -0.817225 -0.575884 0.220977 0.873801
-1.710222 -0.330881 0.071797 -0.512711 -0.538591 -0.668569 0.208310 0.846355
-1.736307 -0.224149 0.055121 -0.647664 0.109195 -0.754021 0.759435 0.445975
-1.660374 -0.257823 0.021195 -0.207709 -0.126377 -0.969970 0.793279 0.451913
-1.649000 -0.308787 0.031842 -0.083285 -0.440107 -0.894040 0.797098 0.466210
-1.710222 -0.330881 0.071797 -0.512711 -0.538591 -0.668569 0.769367 0.476416
-1.774363 -0.289925 0.125551 -0.900784 -0.287667 -0.325236 0.734936 0.463505
-1.749776 -0.341001 0.140187 -0.747734 -0.627552 -0.216895 0.186119 0.859599
-1.780124 -0.201408 0.130129 -0.918546 0.253731 -0.303049 0.728091 0.433415
-1.752237 -0.137750 0.160302 -0.767083 0.627522 -0.133183 0.728139 0.403484
-2.411291 -0.498653 1.502293 0.813227 0.213691 0.541246 0.972313 0.607014
-2.401934 -0.476134 1.439632 0.895779 0.438704 -0.071322 0.498095 0.660364
-2.426904 -0.573569 1.398364 0.664876 -0.545701 -0.510025 0.922257 0.597051
-2.412408 -0.510212 1.389094 0.821070 0.065523 -0.567003 0.959635 0.552251
-2.462561 -0.526481 1.354540 0.272622 -0.055757 -0.960479 0.923075 0.568019
-2.462561 -0.526481 1.354540 0.272622 -0.055757 -0.960479 0.909198 0.046888
-2.554902 -0.568349 1.393603 -0.675558 -0.468245 -0.569506 0.964313 0.491607
-2.523601 -0.481018 1.529694 -0.298715 0.371868 0.878872 0.158725 0.937636
-2.449374 -0.489366 1.530687 0.392682 0.309091 0.866146 0.851459 0.970653
-2.411291 -0.498653 1.502293 0.813227 0.213691 0.541246 0.870589 0.971309
-2.403816 -0.558827 1.470849 0.909513 -0.356487 0.213721 0.885533 0.949112
3.626936 -0.614626 0.011108 -0.621052 0.782525 0.043458 0.310679 0.816271
3.569634 -0.710700 0.019595 -0.965972 0.217414 0.140080 0.321243 0.782528
3.571294 -0.761853 -0.034544 -0.964141 -0.137089 -0.227210 0.314619 0.754688
3.641323 -0.877984 -0.000005 -0.513169 -0.858241 -0.004822 0.358775 0.723880
3.715906 -0.897359 0.032116 -0.068148 -0.971801 0.225684 0.384986 0.726164
3.715906 -0.897359 0.032116 -0.068148 -0.971801 0.225684 0.980433 0.675701
3.849207 -0.715858 0.097415 0.781518 0.193121 0.593188 0.639454 0.830533
3.832185 -0.859656 -0.000728 0.669973 -0.742302 0.009278 0.915335 0.440352
3.870327 -0.806067 -0.016234 0.909726 -0.400922 -0.107852 0.925796 0.463565
3.795300 -0.601620 -0.023466 0.444380 0.881954 -0.156926 0.992914 0.125364
3.725035 -0.608675 -0.087514 0.020692 0.825159 -0.564501 0.983495 0.093055
3.819738 -0.659675 -0.101208 0.591449 0.516770 -0.618946 0.069807 0.735252
3.788384 -0.723299 -0.145869 0.394910 0.085879 -0.914670 0.097746 0.751937
3.788384 -0.723299 -0.145869 0.394910 0.085879 -0.914670 0.994237 0.455618
3.626936 -0.614626 0.011108 -0.621052 0.782525 0.043458 0.015379 0.806641
3.671096 -0.602759 -0.049697 -0.338725 0.890103 -0.304880 0.637048 0.932187
3.614082 -0.830345 -0.073083 -0.698691 -0.560961 -0.443922 0.323045 0.725410
3.587602 -0.693187 -0.061646 -0.872463 0.312265 -0.375835 0.296435 0.773866
3.569634 -0.710700 0.019595 -0.965972 0.217414 0.140080 0.038816 0.842424
-1.723783 -0.367439 0.199214 -0.592090 -0.790399 0.156987 0.894173 0.093947
-1.711021 -0.102970 0.204446 -0.486190 0.853725 0.186316 0.844828 0.184619
-1.663260 -0.389123 0.227144 -0.192694 -0.924436 0.329020 0.917090 0.095082
-1.687947 -0.267238 0.324751 -0.340251 -0.159429 0.926695 0.787811 0.864938
-1.667780 -0.160715 0.314477 -0.222968 0.479110 0.848933 0.787854 0.902966
-1.625959 -0.399759 0.171229 0.041719 -0.998169 -0.043580 0.853624 0.813721
-1.494603 -0.192588 0.249383 0.842891 0.268532 0.466201 0.859010 0.915217
-1.494603 -0.192588 0.249383 0.842891 0.268532 0.466201 0.500644 0.863953
-1.505347 -0.318577 0.118802 0.791650 -0.491653 -0.362682 0.272644 0.899129
-1.477285 -0.287734 0.191781 0.951445 -0.285226 0.115635 0.280072 0.919853
-1.527696 -0.131178 0.114084 0.650594 0.670492 -0.356578 0.550412 0.830533
-1.561134 -0.235434 0.031493 0.420392 0.032746 -0.906735 0.020734 0.892520
-1.625252 -0.135436 0.056899 0.045564 0.647481 -0.760674 0.039004 0.850807
-1.608944 -0.090368 0.122113 0.136143 0.926389 -0.351085 0.070364 0.844680
-1.634260 -0.080661 0.184767 -0.045198 0.998474 0.031159 0.759575 0.364211
-1.774363 -0.289925 0.125551 -0.900784 -0.287667 -0.325236 0.189641 0.840978
-1.711021 -0.102970 0.204446 -0.486190 0.853725 0.186316 0.730965 0.379558
-1.691831 -0.382631 0.141368 -0.375835 -0.896969 -0.232734 0.885610 0.078595
3 0 1 2
3 3 4 5
3 2 1 6
3 3 5 7
3 8 7 9
3 10 2 11
3 12 13 14
3 11 6 15
3 12 16 17
3 18 12 17
3 14 19 20
3 16 14 21
3 14 20 22
3 23 24 25
3 15 26 27
3 28 29 30
3 29 25 30
3 31 28 32
3 33 34 35
3 36 25 37
3 35 38 39
3 30 36 40
3 41 42 43
3 42 44 43
3 35 45 46
3 35 46 33
3 33 46 47
3 44 48 43
3 48 44 49
3 50 34 33
3 51 52 53
3 54 55 56
3 57 56 58
3 59 60 61
3 62 57 63
3 61 60 64
3 63 57 65
3 66 67 68
3 69 66 70
3 64 71 72
3 66 68 70
3 73 69 74
3 64 72 75
3 69 70 74
3 70 68 76
3 73 74 77
3 75 72 78
3 74 70 79
3 77 79 80
3 76 68 81
3 82 75 83
3 84 85 86
3 87 84 86
3 79 76 88
3 75 78 83
3 68 89 81
3 83 78 90
3 85 91 92
3 86 92 93
3 92 91 94
3 93 94 95
3 96 97 98
3 82 83 99
3 98 52 100
3 101 100 102
3 103 104 105
3 106 107 108
3 109 103 105
3 102 100 110
3 105 111 112
3 111 113 114
3 112 111 114
3 115 53 52
3 116 117 118
3 119 120 121
3 122 119 121
3 123 124 125
3 126 123 125
3 118 122 127
3 122 121 128
3 129 130 131
3 130 132 133
3 130 133 134
3 128 135 136
3 127 136 137
3 131 134 138
3 139 140 141
3 134 142 143
3 138 134 143
3 144 141 145
3 141 140 146
3 147 144 148
3 138 143 149
3 138 149 150
3 148 151 152
3 153 154 155
3 154 156 155
3 157 158 159
3 160 153 155
3 161 160 162
3 129 150 163
3 160 155 162
3 162 164 165
3 164 166 167
3 168 169 170
3 171 159 172
3 173 172 174
3 175 170 176
3 177 175 176
3 172 178 179
3 176 170 180
3 178 124 123
3 181 182 180
3 170 181 180
3 179 178 123
3 180 183 184
3 179 123 185
3 176 186 187
3 117 119 122
3 3 188 4
3 50 33 189
3 5 4 190
3 3 7 8
3 10 191 2
3 11 2 6
3 5 192 7
3 14 13 193
3 16 12 14
3 193 19 14
3 6 26 15
3 194 11 15
3 14 22 21
3 17 16 21
3 29 23 25
3 28 30 32
3 35 34 38
3 25 36 30
3 195 32 30
3 30 40 195
3 35 39 45
3 196 41 43
3 197 196 43
3 43 198 197
3 43 48 198
3 47 189 33
3 62 199 200
3 54 201 55
3 201 54 200
3 57 200 54
3 56 55 202
3 59 61 82
3 200 57 62
3 56 202 203
3 57 54 56
3 65 57 58
3 75 61 64
3 68 67 204
3 61 75 82
3 78 72 205
3 79 70 76
3 77 74 79
3 89 68 204
3 76 81 88
3 80 79 88
3 85 92 86
3 206 97 207
3 93 92 94
3 96 207 97
3 86 93 208
3 97 206 115
3 209 208 93
3 103 210 211
3 212 96 98
3 98 97 115
3 107 210 103
3 101 212 98
3 115 52 98
3 211 104 103
3 98 100 101
3 103 109 107
3 104 111 105
3 107 109 108
3 51 100 52
3 100 51 110
3 105 112 109
3 213 108 109
3 214 59 82
3 215 202 55
3 213 109 112
3 215 55 201
3 200 216 201
3 112 217 213
3 118 117 122
3 120 218 121
3 219 116 118
3 122 128 127
3 218 135 121
3 218 220 135
3 121 135 128
3 131 130 134
3 128 136 127
3 139 141 221
3 221 144 222
3 144 221 141
3 146 140 223
3 150 131 138
3 131 150 129
3 141 146 145
3 148 144 145
3 224 147 148
3 149 143 225
3 151 145 146
3 145 151 148
3 159 158 124
3 164 155 156
3 157 226 227
3 157 159 226
3 164 156 166
3 150 228 163
3 155 164 162
3 164 229 165
3 171 226 159
3 229 164 167
3 230 162 165
3 162 230 231
3 159 178 172
3 175 168 170
3 171 172 173
3 178 159 124
3 170 169 181
3 177 176 232
3 182 183 180
3 180 186 176
3 233 179 185
3 186 180 184
3 176 234 232
3 234 176 187
3 235 218 120
