ply
format ascii 1.0
comment Created by Blender 2.64 (sub 9) - www.blender.org, source file: ''
element vertex 327
property float x
property float y
property float z
property float nx
property float ny
property float nz
property float s
property float t
element face 348
property list uchar uint vertex_indices
end_header
0.402626 -0.088126 0.699187 0.284524 0.958342 0.023896 0.896352 0.282716
0.431522 -0.115139 0.760330 0.451247 0.774285 0.443617 0.904272 0.255245
0.465557 -0.122009 0.710153 0.673818 0.730918 0.108097 0.920953 0.269621
0.505423 -0.256297 0.758255 0.919065 -0.109470 0.378552 0.923412 0.915822
0.479997 -0.341911 0.729076 0.752556 -0.623646 0.211341 0.889555 0.910639
0.491278 -0.317492 0.641373 0.836665 -0.434523 -0.333354 0.885533 0.879753
0.506601 -0.197044 0.731888 0.936277 0.272103 0.221992 0.941289 0.900698
0.509183 -0.212375 0.647460 0.952513 0.097568 -0.288339 0.923720 0.873702
0.479997 -0.341911 0.729076 0.752556 -0.623646 0.211341 0.296435 0.858257
0.422182 -0.383788 0.664768 0.412763 -0.893368 -0.177404 0.326477 0.859978
0.491278 -0.317492 0.641373 0.836665 -0.434523 -0.333354 0.302735 0.890095
0.466543 -0.191776 0.584506 0.658193 0.308420 -0.686728 0.924931 0.842874
0.486992 -0.149290 0.664911 0.792871 0.571337 -0.211890 0.950502 0.869406
0.411545 -0.352548 0.591795 0.327738 -0.695212 -0.639699 0.339135 0.887736
0.438383 -0.256692 0.553506 0.505448 -0.098819 -0.857173 0.332810 0.926408
0.414526 -0.101994 0.636794 0.398755 0.829463 -0.391095 0.905377 0.300967
0.362012 -0.092902 0.631696 -0.023072 0.903500 -0.427931 0.885045 0.306848
0.414526 -0.101994 0.636794 0.398755 0.829463 -0.391095 0.968088 0.842845
0.366445 -0.146834 0.561329 0.050539 0.560442 -0.826624 0.943970 0.813721
0.377976 -0.397328 0.685961 0.139286 -0.989715 -0.032075 0.340616 0.846759
0.331403 -0.392998 0.654931 -0.166509 -0.954558 -0.247078 0.361887 0.852634
0.414526 -0.101994 0.636794 0.398755 0.829463 -0.391095 0.896319 0.716759
0.366445 -0.146834 0.561329 0.050539 0.560442 -0.826624 0.926268 0.730340
0.362012 -0.092902 0.631696 -0.023072 0.903500 -0.427931 0.892813 0.733854
0.438383 -0.256692 0.553506 0.505448 -0.098819 -0.857173 0.898538 0.834433
0.310750 -0.365255 0.605943 -0.262429 -0.780175 -0.567797 0.375395 0.871962
0.293038 -0.097327 0.660498 -0.412824 0.878292 -0.241127 0.885480 0.762483
0.332502 -0.243274 0.534578 -0.139225 0.024354 -0.989929 0.962346 0.750818
0.278509 -0.316864 0.579035 -0.522233 -0.450148 -0.724265 0.974309 0.784209
0.263384 -0.230270 0.562370 -0.583422 0.057985 -0.810083 0.949607 0.777297
0.336286 -0.082974 0.692123 -0.123173 0.992340 0.007660 0.870860 0.289153
0.293038 -0.097327 0.660498 -0.412824 0.878292 -0.241127 0.856423 0.299260
0.272080 -0.150983 0.593363 -0.487533 0.574419 -0.657491 0.917284 0.768404
0.235795 -0.141513 0.658397 -0.775445 0.601337 -0.192450 0.898351 0.787988
0.278509 -0.316864 0.579035 -0.522233 -0.450148 -0.724265 0.896115 0.369495
0.248970 -0.348486 0.649094 -0.673025 -0.679708 -0.291574 0.905051 0.389685
0.207357 -0.277570 0.652608 -0.929258 -0.220466 -0.296396 0.875324 0.383202
0.207357 -0.277570 0.652608 -0.929258 -0.220466 -0.296396 0.942673 0.813721
0.248970 -0.348486 0.649094 -0.673025 -0.679708 -0.291574 0.393139 0.859345
0.280200 -0.375827 0.729077 -0.500504 -0.839106 0.213019 0.371843 0.832416
0.218458 -0.320395 0.712693 -0.862606 -0.483169 0.149724 0.890748 0.406888
0.235795 -0.141513 0.658397 -0.775445 0.601337 -0.192450 0.823094 0.388953
0.200540 -0.225040 0.714230 -0.989227 0.083224 0.120365 0.852551 0.403544
0.226042 -0.165130 0.747157 -0.811975 0.505936 0.290963 0.829192 0.419124
0.235795 -0.141513 0.658397 -0.775445 0.601337 -0.192450 0.835334 0.294181
0.226042 -0.165130 0.747157 -0.811975 0.505936 0.290963 0.826329 0.259634
0.287752 -0.105627 0.748873 -0.441816 0.828059 0.345042 0.848815 0.267559
0.245205 -0.294023 0.797974 -0.687765 -0.325449 0.648854 0.878977 0.441632
0.306818 -0.145506 0.813304 -0.332316 0.594836 0.731925 0.853004 0.236957
0.280200 -0.375827 0.729077 -0.500504 -0.839106 0.213019 0.914686 0.423773
0.308156 -0.345265 0.803763 -0.321238 -0.626667 0.709952 0.901652 0.454911
0.308156 -0.345265 0.803763 -0.321238 -0.626667 0.709952 0.405091 0.858241
0.280200 -0.375827 0.729077 -0.500504 -0.839106 0.213019 0.413650 0.833298
0.340650 -0.390934 0.744799 -0.110477 -0.943022 0.313761 0.430527 0.838757
0.233951 -0.199525 0.791648 -0.743431 0.222388 0.630696 0.841651 0.436633
0.327225 -0.238779 0.854088 -0.206030 -0.000580 0.978515 0.859228 0.475188
0.372202 -0.092580 0.753929 0.063723 0.912046 0.405042 0.881052 0.264450
0.306818 -0.145506 0.813304 -0.332316 0.594836 0.731925 0.823035 0.456353
0.327225 -0.238779 0.854088 -0.206030 -0.000580 0.978515 0.860534 0.204250
0.364275 -0.148308 0.826731 0.071841 0.563189 0.823176 0.874567 0.229187
0.370284 -0.317452 0.834948 0.060610 -0.471908 0.879543 0.417354 0.880808
0.398903 -0.374797 0.773375 0.276925 -0.827937 0.487625 0.442579 0.856422
0.327225 -0.238779 0.854088 -0.206030 -0.000580 0.978515 0.395876 0.904452
0.424500 -0.240782 0.839974 0.417554 0.019562 0.908414 0.430786 0.915265
0.424500 -0.240782 0.839974 0.417554 0.019562 0.908414 0.899373 0.204275
0.460553 -0.170606 0.797787 0.630909 0.412305 0.657186 0.914470 0.230487
0.452548 -0.301289 0.807112 0.594348 -0.384655 0.706229 0.449640 0.893799
0.377976 -0.397328 0.685961 0.139286 -0.989715 -0.032075 0.455900 0.833392
0.505423 -0.256297 0.758255 0.919065 -0.109470 0.378552 0.475782 0.909582
0.460553 -0.170606 0.797787 0.630909 0.412305 0.657186 0.448941 0.938272
0.479997 -0.341911 0.729076 0.752556 -0.623646 0.211341 0.477418 0.872630
0.340650 -0.390934 0.744799 -0.110477 -0.943022 0.313761 0.347346 0.829044
0.422182 -0.383788 0.664768 0.412763 -0.893368 -0.177404 0.474421 0.841147
1.872321 -0.599411 1.353822 0.039766 0.998169 -0.045198 0.776662 0.560373
1.803734 -0.618214 1.306785 -0.359355 0.884304 -0.298044 0.752727 0.574928
1.829827 -0.607669 1.390843 -0.256630 0.951476 0.169744 0.758536 0.547117
1.711828 -0.860124 1.359939 -0.887448 -0.460860 -0.000641 0.717613 0.742099
1.754095 -0.911297 1.381454 -0.634877 -0.769585 0.068056 0.741506 0.731317
1.756773 -0.892836 1.442535 -0.611042 -0.622639 0.488815 0.756162 0.750106
1.692305 -0.767466 1.394839 -0.975494 0.048372 0.214576 0.705756 0.779384
1.731336 -0.792480 1.469594 -0.783563 -0.110691 0.611347 0.739434 0.788094
1.749086 -0.649762 1.396424 -0.688314 0.698843 0.194403 0.728091 0.539367
1.811488 -0.637963 1.453254 -0.327006 0.749657 0.575365 0.749369 0.520261
1.754578 -0.698100 1.474514 -0.632099 0.437117 0.639790 0.728092 0.503038
1.802534 -0.825002 1.516877 -0.393658 -0.271676 0.878170 0.772043 0.790188
1.754578 -0.698100 1.474514 -0.632099 0.437117 0.639790 0.725706 0.821845
1.803405 -0.744512 1.522310 -0.339976 0.213752 0.915799 0.757471 0.818334
1.852082 -0.875311 1.507106 -0.082980 -0.565600 0.820460 0.787811 0.773650
1.895505 -0.661673 1.493921 0.156590 0.634022 0.757256 0.781062 0.499467
1.803405 -0.744512 1.522310 -0.339976 0.213752 0.915799 0.395876 0.810258
1.802534 -0.825002 1.516877 -0.393658 -0.271676 0.878170 0.400089 0.781842
1.880803 -0.797821 1.533612 0.059847 -0.119663 0.990997 0.420819 0.804379
1.852082 -0.875311 1.507106 -0.082980 -0.565600 0.820460 0.420460 0.770128
1.868209 -0.940569 1.428305 -0.013062 -0.933042 0.359447 0.445723 0.738855
1.915371 -0.918755 1.461219 0.295175 -0.772393 0.562365 0.452972 0.757538
1.803405 -0.744512 1.522310 -0.339976 0.213752 0.915799 0.746435 0.476416
1.917834 -0.723828 1.522886 0.281747 0.309030 0.908322 0.790472 0.477094
1.868858 -0.618556 1.438593 0.036439 0.895077 0.444349 0.771866 0.527487
1.954021 -0.811134 1.512590 0.492599 -0.229682 0.839351 0.449866 0.807004
1.942546 -0.621364 1.400683 0.421827 0.872066 0.248054 0.802603 0.538132
1.993732 -0.664023 1.416811 0.695975 0.625935 0.351817 0.823268 0.523125
1.917834 -0.723828 1.522886 0.281747 0.309030 0.908322 0.432219 0.833298
2.000967 -0.740687 1.471095 0.736900 0.237068 0.633045 0.471410 0.831714
2.000967 -0.740687 1.471095 0.736900 0.237068 0.633045 0.826039 0.489640
1.886702 -0.950549 1.328865 0.113254 -0.979156 -0.168554 0.474029 0.723880
1.998934 -0.883696 1.417515 0.740806 -0.586352 0.327677 0.488395 0.774917
2.029869 -0.803411 1.430049 0.910367 -0.164953 0.379437 0.492434 0.808445
1.961244 -0.928068 1.351056 0.524216 -0.850734 -0.037019 0.492537 0.745068
1.942546 -0.621364 1.400683 0.421827 0.872066 0.248054 0.676512 0.781947
1.993732 -0.664023 1.416811 0.695975 0.625935 0.351817 0.661351 0.801366
1.995176 -0.661697 1.314787 0.721305 0.640034 -0.264626 0.645706 0.767164
2.036184 -0.719962 1.371525 0.938719 0.329325 0.101596 0.631983 0.800463
2.029869 -0.803411 1.430049 0.910367 -0.164953 0.379437 0.611825 0.829645
2.043497 -0.758068 1.322946 0.973235 0.081454 -0.214850 0.610173 0.790293
1.998934 -0.883696 1.417515 0.740806 -0.586352 0.327677 0.582566 0.830516
2.025161 -0.843970 1.307623 0.877377 -0.384960 -0.286325 0.577844 0.793058
1.995176 -0.661697 1.314787 0.721305 0.640034 -0.264626 0.828665 0.558861
1.940915 -0.619411 1.321982 0.415754 0.879482 -0.231544 0.805688 0.565802
1.998934 -0.883696 1.417515 0.740806 -0.586352 0.327677 0.263500 0.828600
1.961244 -0.928068 1.351056 0.524216 -0.850734 -0.037019 0.249981 0.809979
2.025161 -0.843970 1.307623 0.877377 -0.384960 -0.286325 0.292259 0.795983
1.952755 -0.899307 1.261755 0.490646 -0.683645 -0.540239 0.263044 0.777837
1.940915 -0.619411 1.321982 0.415754 0.879482 -0.231544 0.664634 0.755083
1.944727 -0.689436 1.221552 0.417066 0.474380 -0.775231 0.623228 0.731047
2.001132 -0.743551 1.247439 0.753410 0.165014 -0.636494 0.605282 0.756070
1.954235 -0.821932 1.209167 0.483261 -0.246223 -0.840114 0.573339 0.745409
1.954235 -0.821932 1.209167 0.483261 -0.246223 -0.840114 0.284890 0.749335
1.873308 -0.632155 1.252380 0.032228 0.801691 -0.596820 0.783020 0.589291
1.886702 -0.950549 1.328865 0.113254 -0.979156 -0.168554 0.223970 0.792105
1.879473 -0.905548 1.237474 0.062532 -0.716544 -0.694723 0.240917 0.756700
1.881675 -0.776604 1.182495 0.101474 0.009339 -0.994781 0.588796 0.718538
1.873308 -0.632155 1.252380 0.032228 0.801691 -0.596820 0.793362 0.229582
1.944727 -0.689436 1.221552 0.417066 0.474380 -0.775231 0.826329 0.243251
1.821503 -0.690354 1.210435 -0.247505 0.485366 -0.838527 0.788118 0.262729
1.822491 -0.853446 1.204892 -0.233009 -0.443220 -0.865596 0.236624 0.726099
1.796271 -0.923818 1.287333 -0.419843 -0.810297 -0.408795 0.204841 0.756532
1.799561 -0.776023 1.195119 -0.399884 0.014588 -0.916440 0.788432 0.297211
1.822491 -0.853446 1.204892 -0.233009 -0.443220 -0.865596 0.797790 0.318936
1.735778 -0.837103 1.252933 -0.723869 -0.357524 -0.590014 0.758172 0.318970
1.736369 -0.720147 1.252260 -0.728202 0.293130 -0.619495 0.752652 0.279133
1.817849 -0.945563 1.368753 -0.282571 -0.957121 0.063601 0.198284 0.787941
1.735778 -0.837103 1.252933 -0.723869 -0.357524 -0.590014 0.685594 0.729097
1.796271 -0.923818 1.287333 -0.419843 -0.810297 -0.408795 0.723582 0.709882
1.758217 -0.654583 1.290775 -0.609485 0.689413 -0.391400 0.748381 0.248239
1.707139 -0.706804 1.328543 -0.910123 0.390118 -0.139439 0.726128 0.267995
1.868209 -0.940569 1.428305 -0.013062 -0.933042 0.359447 0.208804 0.814411
1.707139 -0.706804 1.328543 -0.910123 0.390118 -0.139439 0.676512 0.786889
1.703829 -0.798811 1.296742 -0.938749 -0.107089 -0.327494 0.685258 0.749382
1.749086 -0.649762 1.396424 -0.688314 0.698843 0.194403 0.722666 0.232990
2.095450 -0.421502 -1.736667 -0.788903 0.584948 0.188177 0.718105 0.919542
2.069063 -0.482139 -1.813048 -0.924772 0.217383 -0.312204 0.690620 0.890546
2.063702 -0.490476 -1.730109 -0.964019 0.167760 0.206091 0.719129 0.894018
2.069918 -0.568295 -1.800172 -0.925901 -0.292459 -0.239021 0.700646 0.858220
2.094932 -0.619875 -1.777759 -0.774621 -0.624226 -0.101199 0.716079 0.839543
2.082870 -0.569456 -1.691891 -0.845332 -0.312387 0.433363 0.740761 0.866114
2.151125 -0.659692 -1.792282 -0.415937 -0.890194 -0.185766 0.723367 0.821854
2.130240 -0.646661 -1.719053 -0.529252 -0.795495 0.295022 0.744428 0.833134
2.176747 -0.367593 -1.779593 -0.279946 0.953764 -0.109195 0.994344 0.046550
2.135388 -0.382649 -1.746715 -0.493728 0.862056 0.114322 0.993739 0.068229
2.230475 -0.363672 -1.729658 0.094333 0.973388 0.208716 0.968962 0.042026
2.102931 -0.491476 -1.654886 -0.697562 0.153630 0.699820 0.752317 0.898819
2.147806 -0.595504 -1.640460 -0.441084 -0.463424 0.768517 0.771728 0.858815
2.136988 -0.429048 -1.657755 -0.507523 0.553453 0.660329 0.962785 0.093055
2.195191 -0.395938 -1.664918 -0.137059 0.790277 0.597186 0.955795 0.070984
2.136988 -0.429048 -1.657755 -0.507523 0.553453 0.660329 0.753393 0.922057
2.201299 -0.502877 -1.604680 -0.095859 0.088137 0.991455 0.787811 0.896417
2.201299 -0.502877 -1.604680 -0.095859 0.088137 0.991455 0.800230 0.685631
2.147806 -0.595504 -1.640460 -0.441084 -0.463424 0.768517 0.789883 0.642289
2.214229 -0.593719 -1.620626 0.003845 -0.472060 0.881527 0.808335 0.653075
2.225199 -0.440981 -1.625427 0.061312 0.465773 0.882748 0.812237 0.706026
2.302495 -0.441637 -1.649575 0.548662 0.427778 0.718284 0.843352 0.709882
2.225199 -0.440981 -1.625427 0.061312 0.465773 0.882748 0.930510 0.075184
2.282105 -0.401095 -1.678824 0.400494 0.773827 0.490646 0.936725 0.041793
2.301210 -0.552279 -1.632559 0.503159 -0.188421 0.843379 0.840022 0.674442
2.203409 -0.667575 -1.708171 -0.084841 -0.921201 0.379681 0.822902 0.612140
2.287818 -0.628873 -1.671993 0.440565 -0.682455 0.583148 0.843923 0.640196
2.302495 -0.441637 -1.649575 0.548662 0.427778 0.718284 0.917214 0.046057
2.353220 -0.530693 -1.678375 0.841914 -0.097201 0.530747 0.866873 0.679766
2.264164 -0.670432 -1.754290 0.301889 -0.952178 0.047060 0.852905 0.609908
2.320470 -0.634954 -1.731230 0.680197 -0.697195 0.226234 0.867095 0.631773
2.335185 -0.414979 -1.747133 0.755974 0.641011 0.132511 0.938369 0.010437
2.302495 -0.441637 -1.649575 0.548662 0.427778 0.718284 0.573226 0.804195
2.353220 -0.530693 -1.678375 0.841914 -0.097201 0.530747 0.534514 0.815377
2.372669 -0.492932 -1.733655 0.967559 0.171270 0.185583 0.537706 0.795229
2.363857 -0.579215 -1.770010 0.932463 -0.359722 -0.032899 0.889413 0.649116
2.363857 -0.579215 -1.770010 0.932463 -0.359722 -0.032899 0.501343 0.793491
2.363825 -0.472469 -1.807478 0.915922 0.274697 -0.292520 0.532883 0.766536
2.320470 -0.634954 -1.731230 0.680197 -0.697195 0.226234 0.787811 0.788186
2.264164 -0.670432 -1.754290 0.301889 -0.952178 0.047060 0.793653 0.763281
2.313547 -0.637641 -1.806706 0.584613 -0.751701 -0.305155 0.810766 0.788136
2.335185 -0.414979 -1.747133 0.755974 0.641011 0.132511 0.564747 0.773816
2.303954 -0.386816 -1.781143 0.533830 0.834895 -0.133915 0.959652 0.009332
2.217790 -0.369798 -1.821962 0.033479 0.938078 -0.344737 0.994445 0.024114
2.303954 -0.386816 -1.781143 0.533830 0.834895 -0.133915 0.570377 0.753461
2.321475 -0.453934 -1.864190 0.671834 0.405774 -0.619617 0.531754 0.738112
2.255748 -0.405384 -1.869828 0.246803 0.693075 -0.677267 0.550941 0.718538
2.210411 -0.655894 -1.846840 -0.010590 -0.836604 -0.547685 0.831368 0.749334
2.338989 -0.565459 -1.857110 0.769616 -0.259774 -0.583239 0.492608 0.758620
2.277313 -0.486935 -1.907069 0.390973 0.177862 -0.903012 0.514759 0.720986
2.338989 -0.565459 -1.857110 0.769616 -0.259774 -0.583239 0.839087 0.809992
2.270512 -0.596189 -1.894451 0.320109 -0.492447 -0.809320 0.851788 0.781889
2.277313 -0.486935 -1.907069 0.390973 0.177862 -0.903012 0.879380 0.800976
2.217207 -0.552685 -1.918779 -0.024018 -0.242714 -0.969787 0.875449 0.769785
2.277313 -0.486935 -1.907069 0.390973 0.177862 -0.903012 0.922257 0.543122
2.217207 -0.552685 -1.918779 -0.024018 -0.242714 -0.969787 0.902129 0.572394
2.203067 -0.486713 -1.918044 -0.100406 0.239418 -0.965697 0.898175 0.550643
2.255748 -0.405384 -1.869828 0.246803 0.693075 -0.677267 0.909358 0.510008
2.217790 -0.369798 -1.821962 0.033479 0.938078 -0.344737 0.887982 0.492032
2.163492 -0.401162 -1.858145 -0.328074 0.726066 -0.604297 0.874919 0.513441
2.130300 -0.456653 -1.881398 -0.535691 0.395154 -0.746208 0.866509 0.539224
2.117909 -0.524202 -1.890333 -0.617847 -0.061617 -0.783837 0.862603 0.565002
2.214207 -0.675486 -1.783091 -0.012726 -0.992065 -0.125065 0.807303 0.745401
2.151125 -0.659692 -1.792282 -0.415937 -0.890194 -0.185766 0.821361 0.725063
2.105082 -0.418054 -1.811390 -0.700339 0.648152 -0.298959 0.845650 0.515264
2.176747 -0.367593 -1.779593 -0.279946 0.953764 -0.109195 0.865937 0.486760
2.069063 -0.482139 -1.813048 -0.924772 0.217383 -0.312204 0.832190 0.540331
2.140461 -0.609605 -1.871571 -0.472152 -0.556627 -0.683523 0.690708 0.835146
2.140461 -0.609605 -1.871571 -0.472152 -0.556627 -0.683523 0.857818 0.731582
2.094932 -0.619875 -1.777759 -0.774621 -0.624226 -0.101199 0.832853 0.709882
2.203409 -0.667575 -1.708171 -0.084841 -0.921201 0.379681 0.787865 0.739778
2.105082 -0.418054 -1.811390 -0.700339 0.648152 -0.298959 0.693517 0.914746
-2.401594 -0.558910 -2.976828 -0.868831 -0.368145 0.330973 0.335532 0.624529
-2.363900 -0.613175 -3.020695 -0.581072 -0.811060 -0.066866 0.328398 0.599748
-2.343886 -0.599978 -2.941335 -0.339335 -0.711570 0.615192 0.359495 0.608492
-2.381380 -0.437827 -3.013999 -0.702139 0.711875 -0.012726 0.321792 0.669144
-2.410526 -0.497768 -2.989618 -0.957183 0.195563 0.213416 0.327386 0.648009
-2.366405 -0.449254 -2.947394 -0.557298 0.597705 0.576281 0.348338 0.667757
-2.322439 -0.411020 -2.990120 -0.208808 0.950072 0.231819 0.155838 0.770059
-2.381380 -0.437827 -3.013999 -0.702139 0.711875 -0.012726 0.172521 0.783690
-2.366405 -0.449254 -2.947394 -0.557298 0.597705 0.576281 0.150453 0.797065
-2.348959 -0.561177 -2.918595 -0.362438 -0.342784 0.866665 0.365343 0.625027
-2.297682 -0.427528 -2.947060 0.002655 0.800165 0.599719 0.136083 0.775125
-2.367116 -0.513690 -2.918291 -0.555071 0.055239 0.829920 0.132631 0.810380
-2.294924 -0.479515 -2.906199 0.023286 0.312479 0.949614 0.116602 0.789257
-2.343886 -0.599978 -2.941335 -0.339335 -0.711570 0.615192 0.771344 0.000133
-2.324458 -0.626106 -2.990617 -0.198981 -0.955535 0.217566 0.791681 0.009857
-2.267266 -0.624170 -2.985045 0.324015 -0.911130 0.254585 0.791695 0.029584
-2.367116 -0.513690 -2.918291 -0.555071 0.055239 0.829920 0.737648 0.000000
-2.348959 -0.561177 -2.918595 -0.362438 -0.342784 0.866665 0.753528 0.000415
-2.260023 -0.539472 -2.906855 0.344584 -0.156194 0.925657 0.746859 0.033079
-2.258157 -0.580597 -2.928260 0.338054 -0.581500 0.739952 0.765005 0.031202
-2.244791 -0.452485 -2.937906 0.526566 0.540361 0.656270 0.115791 0.764224
-2.294924 -0.479515 -2.906199 0.023286 0.312479 0.949614 0.726346 0.028295
-2.244791 -0.452485 -2.937906 0.526566 0.540361 0.656270 0.726655 0.053397
-2.211363 -0.574683 -2.971009 0.805200 -0.474197 0.355998 0.774499 0.053831
-2.200555 -0.505162 -2.964779 0.890225 0.097690 0.444868 0.492551 0.622956
-2.211363 -0.574683 -2.971009 0.805200 -0.474197 0.355998 0.492537 0.597105
-2.191406 -0.518917 -3.036429 0.976257 0.010254 -0.216254 0.516102 0.610355
-2.209845 -0.579867 -3.038750 0.808100 -0.552080 -0.205237 0.791773 0.062212
-2.258797 -0.415928 -2.989502 0.384503 0.900906 0.201239 0.515511 0.658830
-2.205976 -0.459186 -3.006028 0.852229 0.521073 0.046052 0.510812 0.636811
-2.251296 -0.421322 -3.038465 0.445753 0.858669 -0.252846 0.531638 0.651624
-2.258797 -0.415928 -2.989502 0.384503 0.900906 0.201239 0.138211 0.752071
-2.251296 -0.421322 -3.038465 0.445753 0.858669 -0.252846 0.147254 0.738076
-2.317519 -0.407674 -3.025524 -0.142247 0.979339 -0.143620 0.163736 0.759434
-2.209845 -0.579867 -3.038750 0.808100 -0.552080 -0.205237 0.172521 0.714396
-2.263019 -0.614269 -3.060187 0.374340 -0.820307 -0.432386 0.148449 0.711601
-2.229702 -0.552598 -3.095168 0.630879 -0.284310 -0.721885 0.168868 0.689077
-2.301270 -0.565625 -3.115095 0.028565 -0.423048 -0.905637 0.140532 0.680064
-2.270423 -0.503479 -3.121801 0.242225 0.157933 -0.957244 0.159873 0.665789
-2.320479 -0.612987 -3.072387 -0.170904 -0.816065 -0.552080 0.127127 0.702708
-2.270423 -0.503479 -3.121801 0.242225 0.157933 -0.957244 0.176838 0.623387
-2.301270 -0.565625 -3.115095 0.028565 -0.423048 -0.905637 0.176191 0.649431
-2.354579 -0.523710 -3.114182 -0.451766 0.007355 -0.892087 0.155199 0.648951
-2.307666 -0.431537 -3.088454 -0.021088 0.724754 -0.688681 0.147723 0.607541
-2.354039 -0.443486 -3.081657 -0.466536 0.628803 -0.622028 0.135282 0.621693
-2.363261 -0.577257 -3.088619 -0.554369 -0.514817 -0.653920 0.115620 0.685602
-2.317519 -0.407674 -3.025524 -0.142247 0.979339 -0.143620 0.126018 0.598048
-2.396961 -0.483129 -3.063308 -0.845546 0.291116 -0.447462 0.125114 0.642795
-2.363261 -0.577257 -3.088619 -0.554369 -0.514817 -0.653920 0.154640 0.665781
-2.408496 -0.550513 -3.042941 -0.921293 -0.275887 -0.273995 0.127141 0.664948
-2.303203 -0.628759 -3.035650 -0.015687 -0.983520 -0.179937 0.131383 0.719090
-2.363900 -0.613175 -3.020695 -0.581072 -0.811060 -0.066866 0.110418 0.714734
-2.324458 -0.626106 -2.990617 -0.198981 -0.955535 0.217566 0.123397 0.730303
-2.267266 -0.624170 -2.985045 0.324015 -0.911130 0.254585 0.145067 0.736393
-2.396961 -0.483129 -3.063308 -0.845546 0.291116 -0.447462 0.303181 0.649329
-2.408496 -0.550513 -3.042941 -0.921293 -0.275887 -0.273995 0.310665 0.624493
0.465557 -0.122009 0.710153 0.673818 0.730918 0.108097 0.968055 0.878568
0.357848 -0.302038 0.546171 0.003479 -0.413831 -0.910337 0.364420 0.909497
0.332502 -0.243274 0.534578 -0.139225 0.024354 -0.989929 0.374788 0.926415
0.438383 -0.256692 0.553506 0.505448 -0.098819 -0.857173 0.965874 0.716793
0.278509 -0.316864 0.579035 -0.522233 -0.450148 -0.724265 0.390338 0.889756
0.219775 -0.208098 0.621090 -0.878750 0.190954 -0.437391 0.927757 0.797234
0.219775 -0.208098 0.621090 -0.878750 0.190954 -0.437391 0.849620 0.373492
0.370284 -0.317452 0.834948 0.060610 -0.471908 0.879543 0.892537 0.476416
0.364275 -0.148308 0.826731 0.071841 0.563189 0.823176 0.410263 0.936644
0.506601 -0.197044 0.731888 0.936277 0.272103 0.221992 0.479533 0.926260
0.460553 -0.170606 0.797787 0.630909 0.412305 0.657186 0.962871 0.913011
1.749086 -0.649762 1.396424 -0.688314 0.698843 0.194403 0.692034 0.821854
1.817849 -0.945563 1.368753 -0.282571 -0.957121 0.063601 0.755581 0.720229
1.868209 -0.940569 1.428305 -0.013062 -0.933042 0.359447 0.780640 0.736431
1.756773 -0.892836 1.442535 -0.611042 -0.622639 0.488815 0.404294 0.741731
2.000967 -0.740687 1.471095 0.736900 0.237068 0.633045 0.642284 0.830533
1.873308 -0.632155 1.252380 0.032228 0.801691 -0.596820 0.652156 0.722087
1.881675 -0.776604 1.182495 0.101474 0.009339 -0.994781 0.818214 0.287465
1.881675 -0.776604 1.182495 0.101474 0.009339 -0.994781 0.273559 0.718344
1.803734 -0.618214 1.306785 -0.359355 0.884304 -0.298044 0.758160 0.227089
1.872321 -0.599411 1.353822 0.039766 0.998169 -0.045198 0.769827 0.204250
1.735778 -0.837103 1.252933 -0.723869 -0.357524 -0.590014 0.206531 0.718415
1.703829 -0.798811 1.296742 -0.938749 -0.107089 -0.327494 0.736407 0.304303
1.754095 -0.911297 1.381454 -0.634877 -0.769585 0.068056 0.183148 0.771894
2.130240 -0.646661 -1.719053 -0.529252 -0.795495 0.295022 0.804822 0.716579
2.095450 -0.421502 -1.736667 -0.788903 0.584948 0.188177 0.994445 0.085955
2.130240 -0.646661 -1.719053 -0.529252 -0.795495 0.295022 0.800222 0.609938
2.201299 -0.502877 -1.604680 -0.095859 0.088137 0.991455 0.920516 0.092560
2.363857 -0.579215 -1.770010 0.932463 -0.359722 -0.032899 0.806728 0.813721
2.217790 -0.369798 -1.821962 0.033479 0.938078 -0.344737 0.573339 0.723108
2.117909 -0.524202 -1.890333 -0.617847 -0.061617 -0.783837 0.885480 0.736672
2.140461 -0.609605 -1.871571 -0.472152 -0.556627 -0.683523 0.865645 0.589291
2.069918 -0.568295 -1.800172 -0.925901 -0.292459 -0.239021 0.828665 0.567581
2.135388 -0.382649 -1.746715 -0.493728 0.862056 0.114322 0.845200 0.489156
2.095450 -0.421502 -1.736667 -0.788903 0.584948 0.188177 0.828682 0.503736
-2.367116 -0.513690 -2.918291 -0.555071 0.055239 0.829920 0.360690 0.644182
-2.324458 -0.626106 -2.990617 -0.198981 -0.955535 0.217566 0.346322 0.595010
-2.200555 -0.505162 -2.964779 0.890225 0.097690 0.444868 0.751174 0.065690
-2.205976 -0.459186 -3.006028 0.852229 0.521073 0.046052 0.121087 0.736393
-2.244791 -0.452485 -2.937906 0.526566 0.540361 0.656270 0.492732 0.648798
-2.209845 -0.579867 -3.038750 0.808100 -0.552080 -0.205237 0.516352 0.588699
-2.230419 -0.461378 -3.080984 0.641682 0.478256 -0.599567 0.541416 0.630926
-2.229702 -0.552598 -3.095168 0.630879 -0.284310 -0.721885 0.541247 0.595255
-2.270423 -0.503479 -3.121801 0.242225 0.157933 -0.957244 0.559910 0.614475
-2.230419 -0.461378 -3.080984 0.641682 0.478256 -0.599567 0.171329 0.598051
-2.307666 -0.431537 -3.088454 -0.021088 0.724754 -0.688681 0.557769 0.647605
-2.307666 -0.431537 -3.088454 -0.021088 0.724754 -0.688681 0.172433 0.742909
-2.354579 -0.523710 -3.114182 -0.451766 0.007355 -0.892087 0.125712 0.665781
-2.381380 -0.437827 -3.013999 -0.702139 0.711875 -0.012726 0.110418 0.621626
-2.363261 -0.577257 -3.088619 -0.554369 -0.514817 -0.653920 0.303268 0.610111
3 0 1 2
3 3 4 5
3 6 3 7
3 8 9 10
3 7 5 11
3 12 7 11
3 10 13 14
3 0 15 16
3 17 11 18
3 9 19 20
3 21 22 23
3 13 9 20
3 11 24 18
3 13 20 25
3 23 22 26
3 27 28 29
3 30 16 31
3 26 32 33
3 34 35 36
3 29 28 37
3 38 20 39
3 36 35 40
3 41 42 43
3 44 45 46
3 42 40 47
3 30 31 46
3 46 45 48
3 47 49 50
3 51 52 53
3 54 47 55
3 30 46 56
3 54 55 57
3 48 58 59
3 60 51 61
3 62 60 63
3 59 64 65
3 60 61 66
3 61 53 67
3 63 66 68
3 69 63 68
3 1 65 2
3 66 70 68
3 56 1 0
3 30 0 16
3 20 19 71
3 30 56 0
3 70 61 72
3 73 74 75
3 76 77 78
3 79 78 80
3 75 81 82
3 81 83 82
3 80 78 84
3 85 80 86
3 84 78 87
3 82 83 88
3 89 90 91
3 92 93 94
3 88 95 96
3 75 97 73
3 92 94 98
3 91 92 98
3 73 97 99
3 99 88 100
3 101 98 102
3 88 96 103
3 94 93 104
3 98 105 106
3 94 104 107
3 105 94 107
3 108 109 110
3 111 112 113
3 112 114 115
3 99 116 117
3 118 119 120
3 109 111 110
3 110 111 113
3 120 119 121
3 122 110 123
3 124 115 125
3 120 121 126
3 73 117 127
3 121 128 129
3 126 121 129
3 123 125 130
3 131 132 133
3 126 129 134
3 129 128 135
3 134 129 135
3 136 137 138
3 139 136 138
3 135 128 140
3 141 142 76
3 143 139 144
3 140 128 145
3 146 147 79
3 143 144 148
3 149 150 151
3 152 153 154
3 153 155 156
3 154 153 156
3 157 158 159
3 149 151 160
3 151 154 160
3 154 156 161
3 158 162 163
3 160 154 161
3 164 160 165
3 166 167 168
3 169 166 170
3 163 171 172
3 166 168 173
3 159 163 172
3 168 174 175
3 171 176 172
3 170 173 177
3 175 178 179
3 173 175 177
3 172 176 180
3 181 182 183
3 177 179 184
3 183 185 186
3 187 188 189
3 190 183 186
3 159 191 192
3 193 194 195
3 189 188 196
3 194 197 198
3 199 189 200
3 201 200 202
3 203 204 205
3 206 203 205
3 207 206 208
3 208 205 209
3 205 204 210
3 196 211 212
3 208 209 213
3 207 208 214
3 209 210 215
3 152 216 153
3 217 212 218
3 219 211 188
3 159 192 157
3 220 150 149
3 221 222 223
3 224 225 226
3 227 228 229
3 221 223 230
3 227 229 231
3 229 232 233
3 234 235 236
3 237 238 239
3 239 234 240
3 231 233 241
3 242 239 243
3 239 240 244
3 245 246 247
3 244 236 248
3 249 250 251
3 252 253 254
3 255 256 257
3 257 256 258
3 259 257 258
3 258 256 260
3 261 262 263
3 264 263 265
3 258 260 266
3 264 265 267
3 265 263 268
3 263 269 270
3 260 271 272
3 254 227 252
3 273 271 274
3 275 276 225
3 12 277 6
3 6 7 12
3 3 5 7
3 15 0 2
3 17 277 12
3 17 12 11
3 5 24 11
3 13 10 9
3 278 14 13
3 14 278 279
3 280 27 22
3 13 25 278
3 27 29 22
3 281 278 25
3 22 32 26
3 32 22 29
3 278 281 279
3 38 281 25
3 29 282 32
3 33 32 282
3 29 37 282
3 38 25 20
3 42 283 36
3 35 49 40
3 283 42 41
3 46 31 44
3 36 40 42
3 42 54 43
3 20 71 39
3 54 42 47
3 40 49 47
3 57 43 54
3 284 47 50
3 47 284 55
3 48 59 46
3 56 46 59
3 53 61 51
3 62 63 285
3 1 59 65
3 60 66 63
3 59 1 56
3 70 66 61
3 286 69 68
3 287 6 277
3 72 61 67
3 146 79 288
3 75 74 81
3 79 85 288
3 76 78 79
3 78 77 289
3 85 79 80
3 86 80 84
3 289 290 78
3 97 75 82
3 92 291 93
3 88 83 95
3 97 82 88
3 101 89 91
3 90 92 91
3 91 98 101
3 99 97 88
3 100 88 103
3 94 105 98
3 98 106 102
3 292 111 109
3 292 112 111
3 99 117 73
3 113 112 115
3 113 124 110
3 124 113 115
3 119 128 121
3 123 110 124
3 124 125 123
3 293 122 123
3 133 132 294
3 126 134 295
3 136 294 137
3 131 296 297
3 294 136 133
3 136 139 133
3 143 131 133
3 131 143 296
3 298 134 135
3 133 139 143
3 139 138 299
3 144 139 299
3 142 77 76
3 141 76 147
3 300 135 140
3 79 147 76
3 143 148 296
3 211 219 301
3 152 154 151
3 164 149 160
3 302 162 158
3 159 158 163
3 165 160 161
3 303 174 167
3 168 167 174
3 171 162 304
3 162 171 163
3 173 168 175
3 174 178 175
3 166 173 170
3 190 181 183
3 175 179 177
3 191 172 180
3 172 191 159
3 183 182 185
3 187 189 305
3 199 305 189
3 193 190 186
3 185 197 186
3 194 186 197
3 186 194 193
3 193 195 306
3 196 188 211
3 201 199 200
3 189 196 200
3 195 194 198
3 217 200 196
3 208 206 205
3 200 217 202
3 307 202 217
3 205 210 209
3 308 309 210
3 196 212 217
3 209 215 213
3 310 208 213
3 210 309 215
3 208 310 214
3 213 311 310
3 301 212 211
3 151 150 152
3 221 276 222
3 276 221 225
3 227 254 228
3 225 312 226
3 312 225 221
3 223 222 313
3 312 221 230
3 229 233 231
3 237 239 242
3 239 238 234
3 252 227 231
3 240 234 236
3 231 241 252
3 314 243 239
3 244 240 236
3 239 244 314
3 241 315 252
3 250 316 245
3 245 247 250
3 247 246 317
3 250 318 251
3 274 256 255
3 318 250 247
3 318 247 319
3 319 247 317
3 274 271 256
3 320 318 319
3 264 321 261
3 322 251 318
3 253 323 254
3 260 256 271
3 261 263 264
3 258 266 324
3 263 270 268
3 260 272 266
3 325 265 268
3 265 325 267
3 276 326 222
3 275 225 224
3 271 273 272
